<svg xmlns="http://www.w3.org/2000/svg" viewBox="69.76 87 1068.239 794.326"><path fill="#167ffc" d="m57.92,288.26c-5.42-92.97,49.47-177.03,122.82-204.36,47.12-17.56,107.71-12,150.81,13.62,65.17,38.74,41.45,94.28,102.05,129.03,60.75,34.84,107.04-8.11,177.91,25.65,75.54,35.98,94.31,118.77,96.63,129.83,17.84,85.01-30.17,175.19-113.79,220.39-118.22,63.9-274.09,19.77-319.69-48.09-25.3-37.65-11.02-74.22-51.48-104.19-37.84-28.02-73.39-13.1-106.56-38.47-21.71-16.6-52.38-48.09-58.7-123.42Z" transform="translate(98.65 -10.023) scale(1.31605)"/><g transform="translate(287.082 124.927) scale(1.20514)"><rect width="481.27" height="204.14" x="45.57" y="28.49" fill="#b8b9d8"/><rect width="89.55" height="89.55" x="53" y="38.25" fill="#f9fffa"/><rect width="89.55" height="89.55" x="147.22" y="38.25" fill="#f9fffa"/><rect width="89.55" height="89.55" x="241.43" y="38.25" fill="#f9fffa"/><rect width="89.55" height="89.55" x="335.65" y="38.25" fill="#f9fffa"/><rect width="89.55" height="89.55" x="429.87" y="38.25" fill="#f9fffa"/><rect width="89.55" height="89.55" x="53" y="133.32" fill="#f9fffa"/><rect width="89.55" height="89.55" x="147.22" y="133.32" fill="#f9fffa"/><rect width="89.55" height="89.55" x="241.43" y="133.32" fill="#f9fffa"/><rect width="89.55" height="89.55" x="335.65" y="133.32" fill="#f9fffa"/><rect width="89.55" height="89.55" x="429.87" y="133.32" fill="#f9fffa"/><polygon fill="#fff" points="110.81 222.87 106.24 222.87 53 177.52 53 173.62 110.81 222.87"/><polygon fill="#fff" points="142.55 88.15 142.55 92.09 80.83 38.25 85.35 38.25 142.55 88.15"/><polygon fill="#fff" points="335.65 45.27 425.2 123.37 425.2 127.32 335.65 49.21 335.65 45.27"/><polygon fill="#e8e8e8" points="430.27 127.8 429.87 127.8 429.87 127.45 430.27 127.8"/><polygon fill="#fff" points="383.2 133.32 425.2 169.96 425.2 173.9 378.68 133.32 383.2 133.32"/><polygon fill="#fff" points="485.86 222.87 481.34 222.87 429.87 177.97 429.87 174.03 485.86 222.87"/><polygon fill="#fff" points="330.98 214.8 330.98 218.74 241.43 140.63 241.43 136.68 330.98 214.8"/><polygon fill="#fff" points="330.98 192.23 330.98 196.17 258.92 133.32 263.45 133.32 330.98 192.23"/><polygon fill="#fff" points="429.87 104.86 456.16 127.8 451.64 127.8 429.87 108.81 429.87 104.86"/><polygon fill="#fff" points="519.42 182.97 519.42 186.92 457.97 133.32 462.49 133.32 519.42 182.97"/><polygon fill="#fff" points="359.38 38.25 425.2 95.66 425.2 103.55 350.34 38.25 359.38 38.25"/><polygon fill="#fff" points="403.36 38.25 425.2 57.31 425.2 65.19 394.31 38.25 403.36 38.25"/><polygon fill="#fff" points="506.02 127.8 496.97 127.8 429.87 69.27 429.87 61.38 506.02 127.8"/><polygon fill="#fff" points="514.7 222.87 505.66 222.87 429.87 156.76 429.87 148.87 514.7 222.87"/><polygon fill="#fff" points="142.55 206.15 142.55 222.87 135.97 222.87 53 151.94 53 133.32 57.34 133.32 142.55 206.15"/><polygon fill="#fff" points="204.84 38.25 236.76 65.55 236.76 87.88 178.71 38.25 204.84 38.25"/><polygon fill="#fff" points="309.59 127.8 283.46 127.8 241.43 91.87 241.43 69.53 309.59 127.8"/><polygon fill="#e8e8e8" points="232.03 38.25 236.76 38.25 236.76 42.3 232.03 38.25"/><polygon fill="#fff" points="330.98 89.35 330.98 122.84 241.43 46.29 241.43 38.25 271.21 38.25 330.98 89.35"/><polygon fill="#fff" points="416.05 38.25 425.2 38.25 425.2 46.07 416.05 38.25"/><polygon fill="#fff" points="519.42 93.12 519.42 126.61 429.87 50.06 429.87 38.25 455.23 38.25 519.42 93.12"/><polygon fill="#fff" points="142.55 107.99 142.55 127.8 126.49 127.8 53 61.98 53 38.25 64.69 38.25 142.55 107.99"/><polygon fill="#fff" points="236.76 192.39 236.76 222.87 232.62 222.87 147.22 146.37 147.22 133.32 170.82 133.32 236.76 192.39"/></g><g transform="translate(77.748 240.517) scale(.46962)"><path fill="#f2f2f2" d="M63.09 135.54c-1.54-1.54-3.68-2.49-6.03-2.49-4.71 0-8.53 3.81-8.53 8.51v17.48h17.06v-17.48c0-2.35-.95-4.48-2.5-6.02zm-.65 18.71h-10.77v-11.04c0-2.97 2.42-5.38 5.39-5.38 1.49 0 2.84.6 3.81 1.58.98.97 1.58 2.31 1.58 3.8v11.04zM406.04 135.54c-1.54-1.54-3.68-2.49-6.03-2.49-4.71 0-8.53 3.81-8.53 8.51v17.48h17.06v-17.48c0-2.35-.95-4.48-2.5-6.02zm-.65 18.71h-10.77v-11.04c0-2.97 2.42-5.38 5.39-5.38 1.49 0 2.84.6 3.81 1.58.98.97 1.58 2.31 1.58 3.8v11.04z"/><rect width="491.08" height="250.95" x="-17.01" y="146.05" fill="#7c5933"/><rect width="464.15" height="218.69" x="-3.55" y="162.18" fill="#ffcc97"/><path d="m460.6,381.54H-3.55c-.37,0-.67-.3-.67-.67v-218.69c0-.37.3-.67.67-.67h464.15c.37,0,.67.3.67.67v218.69c0,.37-.3.67-.67.67Zm-463.48-1.34h462.8v-217.34H-2.87v217.34Z"/><path d="m461.05,162.85c-.15,0-.3-.05-.42-.15-.29-.23-.33-.66-.1-.95l11.67-14.34c.24-.29.66-.33.95-.1.29.23.33.66.1.95l-11.67,14.34c-.13.16-.33.25-.52.25Z"/><polygon fill="#f2f2f2" points="86.28 241.95 69.1 248.12 83.05 236.35 86.28 241.95 86.28 241.95"/><ellipse cx="83.07" cy="240" fill="#f98000" rx="6.18" ry="11.87" transform="rotate(-25.09 83.086 240.023)"/><path fill="#f98000" d="m98.52,237.45l-2.29,1.23-6.07,3.25c-2.36,1.26-5.3.3-6.45-2.11-.97-2.04-.33-4.49,1.51-5.8l6.21-4.42,1.83-1.3c1.85-1.29,4.41-.71,5.49,1.26l1.48,2.69c1.03,1.9.25,4.27-1.72,5.2Z"/><path fill="#ba6000" d="m98.52,237.45h0c-1.26.68-2.83.2-3.49-1.06l-2.53-4.81c-.6-1.14-.26-2.54.78-3.28h0c1.85-1.29,4.41-.71,5.49,1.26l1.48,2.69c1.03,1.9.25,4.27-1.72,5.2Z"/><polygon fill="#f2f2f2" points="63.84 281.38 46.66 287.55 60.6 275.78 63.84 281.38 63.84 281.38"/><ellipse cx="60.62" cy="279.44" fill="#53d86a" rx="6.18" ry="11.87" transform="rotate(-25.09 60.634 279.457)"/><path fill="#53d86a" d="m76.08,276.89l-2.29,1.23-6.07,3.25c-2.36,1.26-5.3.3-6.45-2.11-.97-2.04-.33-4.49,1.51-5.8l6.21-4.42,1.83-1.3c1.85-1.29,4.41-.71,5.49,1.26l1.48,2.69c1.03,1.9.25,4.27-1.72,5.2Z"/><path fill="#1aa031" d="m76.08,276.89h0c-1.26.68-2.83.2-3.49-1.06l-2.53-4.81c-.6-1.14-.26-2.54.78-3.28h0c1.85-1.29,4.41-.71,5.49,1.26l1.48,2.69c1.03,1.9.25,4.27-1.72,5.2Z"/><polygon fill="#f2f2f2" points="114.12 302.89 96.93 309.06 110.88 297.29 114.12 302.89 114.12 302.89"/><ellipse cx="110.9" cy="300.95" fill="#11125b" rx="6.18" ry="11.87" transform="rotate(-25.09 110.911 300.974)"/><path fill="#11125b" d="m126.35,298.4l-2.29,1.23-6.07,3.25c-2.36,1.26-5.3.3-6.45-2.11-.97-2.04-.33-4.49,1.51-5.8l6.21-4.42,1.83-1.3c1.85-1.29,4.41-.71,5.49,1.26l1.48,2.69c1.03,1.9.25,4.27-1.72,5.2Z"/><path fill="#0a0b3a" d="m126.35,298.4h0c-1.26.68-2.83.2-3.49-1.06l-2.53-4.81c-.6-1.14-.26-2.54.78-3.28h0c1.85-1.29,4.41-.71,5.49,1.26l1.48,2.69c1.03,1.9.25,4.27-1.72,5.2Z"/></g><g transform="translate(98.62 669.37) scale(.40864)"><rect width="239.6" height="5.6" x="-86.55" y="327.25" transform="rotate(-78.95 33.238 330.047)"/><rect width="5.6" height="239.6" x="288.14" y="210.25" transform="rotate(-11.05 291.025 330.135)"/><rect width="5.6" height="243.38" x="465.72" y="208.36" transform="rotate(-14.94 468.502 330.041)"/><path fill="#7c5933" d="m17.13-.84h273.81v207.16H-.37V16.65C-.37,7,7.47-.84,17.13-.84Z"/><path fill="#205629" d="m290.94-.84h186.42c9.65,0,17.49,7.84,17.49,17.49v189.67h-203.91V-.84h0Z"/><rect width="110.92" height="20.16" x="78.06" y="23.79" fill="#205629"/><rect width="291.3" height="12.32" x="-.37" y="206.32" fill="#ffcc97"/><rect width="203.91" height="12.32" x="290.94" y="206.32" fill="#171842"/><rect width="412.3" height="5.6" x="42.77" y="280.22"/></g><g transform="translate(269.052 526.82) scale(1.05568)"><path fill="#7c5933" d="M70.14 306.17h-23.8c-2.7 0-4.78-2.18-4.38-4.62l5.69-35.23c.32-1.98 2.19-3.44 4.38-3.44h16.21c2.36 0 4.31 1.69 4.43 3.83l1.9 35.23c.12 2.3-1.89 4.23-4.43 4.23zM613.62 306.17h23.8c2.7 0 4.78-2.18 4.38-4.62l-5.69-35.23c-.32-1.98-2.19-3.44-4.38-3.44h-16.21c-2.36 0-4.31 1.69-4.43 3.83l-1.9 35.23c-.12 2.3 1.89 4.23 4.43 4.23z"/><rect width="76.51" height="104.83" x="44.47" y="64.68" fill="#d8bfa4"/><path fill="#fff0e1" d="m27.98,64.68h19.39c11.79,0,21.36,9.57,21.36,21.36v188.3H27.98c-13.56,0-24.56-11.01-24.56-24.56V89.25c0-13.56,11.01-24.56,24.56-24.56Z"/><rect width="75.58" height="104.83" x="562.78" y="64.68" fill="#d8bfa4"/><path fill="#fff0e1" d="m636.38,64.68h19.39c13.56,0,24.56,11.01,24.56,24.56v160.53c0,13.56-11.01,24.56-24.56,24.56h-40.75V86.04c0-11.79,9.57-21.36,21.36-21.36Z"/><path fill="#f7e6d5" d="m122.7.17h205.8c7.38,0,13.38,6,13.38,13.38v122.85H109.32V13.55c0-7.38,6-13.38,13.38-13.38Z"/><path fill="#f7e6d5" d="m355.26.17h205.8c7.38,0,13.38,6,13.38,13.38v122.85h-232.56V13.55c0-7.38,6-13.38,13.38-13.38Z"/><rect width="546.3" height="82.76" x="68.73" y="191.58" fill="#f7e6d5"/><rect width="546.3" height="82.76" x="68.73" y="136.41" fill="#fff0e1" rx="17.85" ry="17.85"/><rect width="1.11" height="103.98" x="341.32" y="13.12"/><rect width="1.11" height="62.81" x="341.32" y="154.02"/></g><g transform="translate(121.53 468.338) scale(.4506)"><path fill="#ffcc97" d="m287.13,441.28c.54,0,.8.64.43,1.03-2.51,2.63-6.05,4.26-9.98,4.26H18.73c-7.62,0-13.8-6.17-13.8-13.79v-23.9c0-7.61,6.18-13.79,13.8-13.79h258.86c4.13,0,7.84,1.81,10.36,4.69.21.24.04.61-.27.61h-66.59c-3.99,0-7.22,3.23-7.22,7.22v26.46c0,3.99,3.23,7.22,7.22,7.22h66.03Z"/><path fill="#b8b9d8" d="m305.06,352.28h-47.86v36.56h47.35c-2.46,3.77-6.72,6.25-11.55,6.25H34.13c-7.62,0-13.8-6.17-13.8-13.79v-23.9c0-7.61,6.18-13.79,13.8-13.79h258.86c5.53,0,10.31,3.26,12.51,7.96.15.33-.08.7-.44.7Z"/><rect width="12.04" height="50.51" x="82.44" y="344.1" fill="#fe9526"/><path fill="#fe9526" d="m257.21,359.5v22.13c0,3.99,3.23,7.22,7.22,7.22h39.87c-2.49,3.49-6.62,5.77-11.3,5.77h-34.67c-5.14,0-9.31-4.16-9.31-9.3v-31.91c0-5.14,4.17-9.3,9.31-9.3h34.67c5.48,0,10.22,3.13,12.44,7.67.11.23-.06.51-.32.51h-40.69c-3.99,0-7.22,3.23-7.22,7.22Z"/><path d="m293,343.02H34.13c-7.95,0-14.4,6.44-14.4,14.39v23.9c0,7.95,6.45,14.39,14.4,14.39h258.86c5.18,0,9.73-2.75,12.26-6.86h-1.44c-2.38,3.42-6.35,5.65-10.82,5.65H34.13c-7.29,0-13.2-5.9-13.2-13.19v-23.9c0-7.28,5.91-13.19,13.2-13.19h258.86c5.45,0,10.15,3.33,12.16,8.06h0c.63,0,1.04-.67.76-1.23-2.35-4.75-7.26-8.03-12.91-8.03Z"/><rect width="13.48" height="50.51" x="39.59" y="395.58" fill="#fe9526"/><rect width="65.48" height="50.51" x="75.22" y="395.58" fill="#fe9526"/><path d="m287.94,441.28c-.17,0-.34.08-.45.21-2.41,2.75-5.96,4.48-9.9,4.48H18.73c-7.29,0-13.2-5.9-13.2-13.19v-23.9c0-7.28,5.91-13.19,13.2-13.19h258.86c4.04,0,7.66,1.82,10.08,4.69h0c.63,0,.96-.75.53-1.22-2.63-2.87-6.42-4.67-10.61-4.67H18.73c-7.95,0-14.4,6.44-14.4,14.39v23.9c0,7.95,6.45,14.39,14.4,14.39h258.86c4.3,0,8.17-1.9,10.81-4.9.34-.39.05-1-.46-1h0Z"/><path fill="#efefef" d="m302.94,352.28v36.56h-38.52c-3.99,0-7.22-3.23-7.22-7.22v-22.13c0-3.98,3.24-7.22,7.22-7.22h38.52Z"/><path d="M302.94 357.95v1.16h-38.52c-.32 0-.58-.26-.58-.58s.26-.58.58-.58h38.52zM302.94 365.65v1.16h-38.52c-.32 0-.58-.26-.58-.58s.26-.58.58-.58h38.52zM302.94 373.35v1.16h-38.52c-.32 0-.58-.26-.58-.58s.26-.58.58-.58h38.52zM302.94 381.04v1.16h-38.52c-.32 0-.58-.26-.58-.58s.26-.58.58-.58h38.52z"/><path fill="#efefef" d="m284.65,400.39v40.89h-63.55c-3.99,0-7.22-3.23-7.22-7.22v-26.46c0-3.98,3.24-7.22,7.22-7.22h63.55Z"/><path d="M284.65 406.54v1.16h-59.7c-.32 0-.58-.26-.58-.58s.26-.58.58-.58h59.7zM284.65 415.2v1.16h-59.7c-.32 0-.58-.26-.58-.58s.26-.58.58-.58h59.7zM284.65 423.86v1.16h-59.7c-.32 0-.58-.26-.58-.58s.26-.58.58-.58h59.7zM284.65 432.52v1.16h-59.7c-.32 0-.58-.26-.58-.58s.26-.58.58-.58h59.7z"/><path fill="#f98000" d="m210.94,106.35s-1.11-19.89-14.37-15.47c-13.26,4.42-2.21,16.57,7.74,18.78,9.95,2.21,6.63-3.31,6.63-3.31Z"/><path fill="#f98000" d="M205.41 106.35s3.32-18.78 15.48-15.47 0 16.57-8.84 16.57-6.63-1.1-6.63-1.1zM202.09 106.35s-16.58-11.05-22.11-1.1 9.95 12.15 15.48 8.84c5.53-3.31 6.63-7.73 6.63-7.73z"/><path fill="#53d86a" d="m182.2,274.28s22.11-35.35,15.48-64.08c-6.63-28.72-17.69-48.61-44.22-48.61s-44.22,29.83-36.48,60.76c7.74,30.93,34.27,55.24,34.27,55.24l30.95-3.31Z"/><path fill="#53d86a" d="m191.04,201.36s-.82-32.9,11.05-47.5c14.37-17.68,34.27-20.99,47.53-6.63,13.26,14.36,2.21,46.4-7.74,58.55-9.95,12.15-33.16,26.51-55.27,22.1-22.11-4.42,4.42-26.51,4.42-26.51Z"/><path fill="#53d86a" d="m227.52,142.81s4.42-30.93-13.26-37.56c-17.69-6.63-29.85,11.05-23.21,25.41,6.63,14.36,24.32,18.78,24.32,18.78l12.16-6.63Z"/><path fill="#7c5933" d="m129.6,265.44h70.92c4.53,0,8.2,3.67,8.2,8.2v45.68c0,12.94-10.51,23.45-23.45,23.45h-40.42c-12.94,0-23.45-10.51-23.45-23.45v-45.68c0-4.53,3.67-8.2,8.2-8.2Z"/><path d="M168.71 201.45c-.38 0-.72-.26-.81-.64-.73-3.07-.86-6.34-.4-9.45.07-.45.49-.76.94-.7.45.07.77.49.7.94-.43 2.91-.31 5.96.37 8.83.11.45-.17.89-.62 1-.06.02-.13.02-.19.02zM152.39 203.04c-.1 0-.2-.02-.3-.06l-8.46-3.33c-.43-.17-.64-.65-.47-1.07.17-.43.65-.63 1.08-.47l8.46 3.33c.43.17.64.65.47 1.07-.13.33-.44.53-.77.53zM139.64 233.1c-.08 0-.17-.01-.25-.04-3.96-1.27-8.25-1.71-12.39-1.27-.45.06-.86-.28-.91-.74-.05-.45.28-.86.74-.91 4.37-.47 8.89 0 13.07 1.34.44.14.68.61.54 1.04-.11.35-.44.58-.79.58zM162.81 238.33c-.12 0-.23-.02-.34-.07-3.44-1.56-6.37-4.03-8.49-7.16-.26-.38-.16-.89.22-1.15.38-.26.89-.16 1.15.22 1.95 2.87 4.65 5.14 7.81 6.58.42.19.6.68.41 1.1-.14.31-.44.49-.75.49zM218.63 198.54c-.13 0-.26-.03-.38-.09-3.08-1.58-5.65-4.14-7.23-7.22-.21-.41-.05-.91.36-1.12.41-.21.91-.05 1.12.36 1.42 2.77 3.73 5.08 6.51 6.5.41.21.57.71.36 1.12-.15.29-.44.45-.74.45zM229.16 183.48c-.35 0-.68-.23-.79-.58l-2.25-7.19c-.14-.44.11-.9.54-1.04.44-.14.9.11 1.04.54l2.25 7.19c.14.44-.11.9-.54 1.04-.08.03-.17.04-.25.04zM239.85 164.58s-.05 0-.07 0c-.46-.04-.79-.44-.76-.9.2-2.42-.32-4.93-1.48-7.06-.22-.4-.07-.91.33-1.12.41-.22.91-.07 1.12.33 1.31 2.41 1.91 5.25 1.68 7.99-.04.43-.4.76-.82.76zM212.44 158.05c-.19 0-.38-.06-.54-.2-.35-.3-.39-.82-.09-1.17l5.55-6.53c.3-.35.82-.39 1.17-.09.35.3.39.82.09 1.17l-5.55 6.53c-.16.19-.4.29-.63.29zM214.4 125.42c-.44 0-.8-.34-.83-.78l-.59-10.77c-.02-.46.33-.85.78-.87.44-.04.85.33.87.78l.59 10.77c.02.46-.32.85-.78.87-.02 0-.03 0-.05 0zM198.4 126.73c-.21 0-.42-.08-.59-.24l-3.59-3.59c-.32-.32-.32-.85 0-1.17s.85-.32 1.17 0l3.59 3.59c.32.32.32.85 0 1.17-.16.16-.37.24-.59.24zM213.09 137.5c-.17 0-.35-.05-.5-.17-.37-.27-.44-.79-.17-1.16l1.96-2.61c.27-.37.79-.44 1.16-.17.37.27.44.79.17 1.16l-1.96 2.61c-.16.22-.41.33-.66.33zM132.29 181.06c-.08 0-.16-.01-.24-.04-.44-.13-.68-.6-.55-1.04l1.96-6.36c.13-.44.6-.68 1.04-.55.44.13.68.6.55 1.04l-1.96 6.36c-.11.36-.44.58-.79.58zM184.32 235.9s-.08 0-.11 0c-.45-.06-.77-.48-.71-.93l1.01-7.34c.06-.45.48-.78.93-.71.45.06.77.48.71.93l-1.01 7.34c-.06.42-.41.72-.82.72zM162.65 256.92c-.11 0-.22-.02-.33-.07-2.34-1.01-4.92-1.5-7.48-1.4-.47 0-.84-.34-.86-.8-.02-.46.34-.84.8-.86 2.8-.1 5.63.43 8.19 1.54.42.18.62.67.44 1.09-.13.31-.44.5-.76.5z"/><path d="M192.12 183.92s-.07 0-.11 0c-.45-.06-.78-.47-.72-.93 1.72-13.5 5.14-23.47 10.16-29.65 6.28-7.72 13.68-12.89 21.42-14.95.45-.12.9.15 1.01.59.12.44-.15.9-.59 1.01-7.4 1.97-14.51 6.94-20.56 14.39-4.76 5.85-8.14 15.81-9.8 28.81-.05.42-.41.72-.82.72zM198.91 222.42c-.46 0-.83-.37-.83-.83 0-3.96-.42-7.73-1.22-11.2-3.37-14.59-7.43-24.91-12.77-32.47-.26-.37-.18-.89.2-1.15.38-.26.89-.18 1.16.2 5.47 7.74 9.61 18.24 13.03 33.05.83 3.6 1.26 7.49 1.26 11.57 0 .46-.37.83-.83.83h0z"/></g><g transform="translate(970.776 293.064) scale(.59949)"><rect width="15.12" height="715.53" x="142.11" y="208.62" fill="#ffcc97"/><path fill="#b8b9d8" d="m90.78,916.2h117.77c10.09,0,18.29,8.19,18.29,18.29H72.5c0-10.09,8.19-18.29,18.29-18.29Z"/><circle cx="70.11" cy="237.24" r="3.18" fill="#ffcc97"/><circle cx="70.11" cy="245.19" r="3.18" fill="#ffcc97"/><circle cx="70.11" cy="253.14" r="3.18" fill="#ffcc97"/><circle cx="70.11" cy="261.09" r="3.18" fill="#ffcc97"/><circle cx="70.11" cy="269.04" r="3.18" fill="#ffcc97"/><circle cx="70.11" cy="276.99" r="3.18" fill="#ffcc97"/><circle cx="70.11" cy="284.94" r="3.18" fill="#ffcc97"/><circle cx="70.11" cy="292.89" r="3.18" fill="#ffcc97"/><circle cx="70.11" cy="300.84" r="3.18" fill="#ffcc97"/><circle cx="70.11" cy="308.79" r="3.18" fill="#ffcc97"/><circle cx="70.11" cy="316.74" r="3.18" fill="#ffcc97"/><circle cx="70.11" cy="324.69" r="3.18" fill="#ffcc97"/><polygon fill="#ffcc97" points="75.68 345.36 65.34 345.36 67.72 330.26 72.5 330.26 75.68 345.36"/><polygon fill="#fe9526" points="278.94 239.62 20.39 239.62 65.95 -.48 233.38 -.48 278.94 239.62"/><path d="M79.66 236.25s-.05 0-.07 0c-.33-.04-.57-.34-.54-.67L105.31 1.04c.04-.33.33-.58.67-.53.33.04.57.34.54.67l-26.25 234.54c-.03.31-.3.54-.6.54zM231.61 239.43c-.3 0-.57-.23-.6-.54L203.96 1.18c-.04-.33.2-.63.53-.67.32-.04.63.2.67.53l27.05 237.72c.04.33-.2.63-.53.67-.02 0-.05 0-.07 0zM145.69 236.25s-.02 0-.03 0c-.33-.02-.59-.3-.57-.64L157.81 1.08c.02-.34.32-.59.64-.57.33.02.59.3.57.64l-12.73 234.54c-.02.32-.29.57-.61.57zM226.83 935.09H72.5c-.33 0-.61-.27-.61-.61s.27-.61.61-.61h154.34c.33 0 .61.27.61.61s-.27.61-.61.61z"/></g><g transform="translate(314.067 339.194) scale(.60573)"><rect width="216.04" height="85.78" x="278.17" y="222.99" fill="#53d86a" rx="42.89" ry="42.89" transform="rotate(-13.67 386.11 265.847)"/><path fill="#53d86a" d="m219.13,226.71s-50.29,7.76-81.73,12.6-88.67,190.14-80.61,246.53l261.98-22.56,46.75-196.58-45.27-24.93-101.12-15.06Z"/><path fill="#7c5933" d="M500.94 754.12c-17.49 12.75-41.4 1.2-59.96-5.98-9.1-4.02-17.94-8.52-26.7-13.35-1.44-.85-24.03-35.48-25.39-36.25-5.17-2.92-7.99 11.38-12.09 9.67-12.17-4.88-26.78-13.2-32.24-18.53 3.38-16.67 10.37-51.19 13.7-67.68l87.86-27.39s-12.09 48.34 4.03 68.48c14.66 19.15 83.19 61.3 50.78 91.04zM387.31 186.08c.26-6.25-3.75-11.88-9.76-13.66-7.55-2.24-18.22-4.82-27.35-4.82-16.12 0-31.44 1.61-31.44 1.61 0 0-12.09 57.2-10.48 60.42 1.61 3.22 21.76 5.64 29.02-2.42s16.12-12.08 16.93-11.28c.81.81 29.02-3.22 31.44-15.31 1.01-5.04 1.46-10.22 1.64-14.55z"/><path d="m224.11,199.73c-3.34,1.94-8,1.21-10.57-1.67-2.58-2.88-2.79-7.59-.49-10.69-4.22-.17-8.64-2.8-9.51-6.93s3.51-8.8,7.42-7.19c-1.36-1.96-.82-4.99,1.14-6.35,1.96-1.37,4.99-.84,6.36,1.12-1.15-1.88-.02-4.73,2.12-5.3-5.97-4.49-8.35-17.73-3.38-23.31,4.97-5.58,12.47-6.95,19.35-4.03-2.64-5.56-11.29-19.34,4.15-30.18,5.04-3.54,13.37-2.02,15.72,3.67,3.04-9.16,10.19-17.38,19.59-19.63,9.39-2.25,20.57,2.92,23.22,12.2,2-5.54,8.23-8.92,14.1-8.48,5.88.44,11.18,4.2,14.43,9.11,3.24,4.92,4.62,10.87,4.94,16.75.99-2.35,2.03-4.77,3.89-6.51,1.87-1.74,4.81-2.6,7.02-1.33,1.7.97,2.57,2.9,3.23,4.74,1.97,5.49,2.96,11.33,2.93,17.16.94-3.6,5.93-4.98,9.11-3.05,3.18,1.93,4.46,6.07,3.96,9.75s-2.46,6.99-4.55,10.06c5.36,1.08,8.04,8.65,4.55,12.86,4.77.99,5.79,8.08,2.71,11.85-3.08,3.77-8.31,4.88-13.14,5.47-4.83.59-9.99,1-13.87,3.93-3.71,2.79-5.55,7.37-8.54,10.93-5.82,6.94-15.32,9.37-24.21,11.12-17.13,3.37-34.48,5.69-51.9,6.9-5.53.38-11.85,1.25-17.33.49-3.43-.47-6.5-2.1-8.79-4.69-.7-.79-5.2-7.86-3.66-8.76Z"/><path fill="#7c5933" d="m300.03,258.71c5.41,30.05.91,37.79-48.97,35.38-49.98-2.42-58.04-58.81-58.04-58.81,40.3-4.83,62.87-44.31,62.87-44.31,0,0,4.03-4.83,24.99.81,13.28,3.57,18.14,15.55,19.93,23.85,1.03,4.81,1.03,8.38,1.03,8.38-16.93,8.06-4.03,23.36-4.03,23.36.84,4.09,1.6,7.87,2.22,11.35Z"/><path fill="#f2f2f2" d="m224.46,428.64s24.35-84.91,14.59-136.31l54.48-7.37s-7.82,124.35-26.36,146.91l-42.72-3.22Z"/><path d="m297.81,247.36c.84,4.09,1.6,7.87,2.22,11.35-1.85.15-3.93.12-6.25-.07-37.89-3.22-32.24-58.01-32.24-58.01l39.27,14.99c1.03,4.81,1.03,8.38,1.03,8.38-16.93,8.06-4.03,23.36-4.03,23.36Z"/><path fill="#53d86a" d="m291.36,235.28s11.29,48.34-14.51,176.44h24.99s36.27-97.49,31.44-123.27l-8.87-4.03s0-41.89-5.64-48.34c-5.64-6.45-27.41-.81-27.41-.81Z"/><path d="m301.84,412.32h-24.99c-.18,0-.35-.08-.47-.22-.11-.14-.16-.32-.13-.5,13.32-66.13,16.55-110.54,16.92-136.15.4-27.7-2.37-39.92-2.4-40.04-.07-.32.12-.64.44-.72.9-.23,22.19-5.66,28.01.99,4.29,4.9,5.42,28.64,5.71,42.36.02.9-.3,1.68-.95,2.31-1.09,1.06-2.95,1.52-4.51,1.72l14.04,5.82c.19.08.33.25.36.45,4.81,25.65-29.98,119.6-31.46,123.59-.09.24-.31.39-.57.39Zm-24.25-1.21h23.83c1.2-3.26,9.6-26.17,17.38-51.54,10.93-35.65,15.75-60.07,13.94-70.69l-16.22-6.72c-.27-.11-.42-.4-.36-.69.06-.29.32-.49.62-.47,1.29.04,4.94-.11,6.36-1.51.41-.4.6-.86.59-1.42-.49-23.06-2.46-38.22-5.41-41.59-4.85-5.54-22.84-1.57-26.24-.76,1.14,5.89,9.38,56.51-14.48,175.39Z"/><path fill="#7c5933" d="m252.81,175.69c3.41-2.86,7.94-3.62,12.23-2.5,8.22-17.35,23.92-24.25,39.52-18.59,16.89,6.13,27.25,24.67,19.75,45.3-7.5,20.63-15.66,36.6-32.55,30.46-9.46-3.44-19.64-13.07-25.46-24.51-5.47-1.85-11.12-5.57-14.14-9.17-5.56-6.62-5.27-16.02.65-20.99Z"/><path d="m252.85,188.12l-.9-.91c3.2-3.18,7.4-5.44,11.82-6.35l.26,1.25c-4.18.87-8.15,3-11.18,6.01Z"/><path fill="#fff" d="m256.68,184.32c.12,2.02.25,4.04.37,6.06"/><rect width="1.28" height="6.07" x="256.23" y="184.31" transform="rotate(-3.51 256.906 187.38)"/><ellipse cx="294.93" cy="187.44" rx="2.83" ry="2.03" transform="rotate(-70 294.925 187.439)"/><ellipse cx="315.02" cy="194.01" rx="2.83" ry="2.03" transform="rotate(-70 315.012 194.012)"/><path d="M309.53 207.53c-3.02-2.61-4.92-6.4-5.2-10.38-.28-3.98 1.05-8 3.67-11.01l.97.84c-2.4 2.76-3.62 6.43-3.36 10.08.26 3.65 1.99 7.11 4.76 9.5l-.84.97zM298.33 213.73c-5.35-2.16-9.14-7.48-9.44-13.24l1.28-.07c.27 5.19 3.82 10.17 8.64 12.12l-.48 1.18z"/><path d="m298.69,232.32c-2.28,0-4.66-.46-7.15-1.36-9.76-3.55-19.82-13.18-25.69-24.59-5.41-1.88-11.08-5.59-14.18-9.28-2.79-3.32-4.26-7.42-4.13-11.55.13-4.15,1.86-7.82,4.86-10.35,3.32-2.79,7.77-3.78,12.29-2.76,8.3-17.06,23.99-24.29,40.09-18.44l-.44,1.2c-15.59-5.66-30.79,1.51-38.73,18.26l-.23.48-.51-.13c-4.28-1.12-8.53-.25-11.66,2.37-2.72,2.29-4.29,5.63-4.41,9.41-.12,3.81,1.24,7.6,3.83,10.68,3.01,3.58,8.58,7.19,13.86,8.97l.25.08.12.23c5.63,11.07,15.72,20.79,25.11,24.2,3.2,1.16,6.2,1.54,8.92,1.12.02-.01,8.87-2.41,13.56-10.74l.18-.32c2.61-4.63,9.53-16.92,11.52-32.24l1.27.16c-2.01,15.57-9.03,28.02-11.67,32.7l-.18.32c-4.96,8.82-14.04,11.27-14.42,11.37-.81.12-1.63.19-2.47.19Z"/><path fill="#7c5933" d="m473.16,287.57l-34.4,9.52c-14.52,4.02-30-1.28-39.01-13.33l-46.58-62.32-5.28-7.07c-11-23.64-8.29-40.78,26.5-42.75,5.8,1.39,11.55,2.91,17.23,4.58,34.51,10.13,66.5,25.55,94.42,47.53,23.5,18.5,15.94,55.86-12.88,63.84Z"/><path fill="#53d86a" d="m216.4,219.97s49.17,73.32,8.06,208.67h-24.99s12.09-95.07-6.45-140.19l14.51-8.86-14.51.81s5.79-34.75-5.27-47.29c-.93-1.06-.68-2.7.53-3.43,6.23-3.8,22.32-12.93,28.12-9.71Z"/><path fill="#ffcc97" d="m500.94,754.12c-17.49,12.75-41.4,1.2-59.96-5.98-9.1-4.02-17.94-8.52-26.7-13.35-1.44-.85-24.03-35.48-25.39-36.25-5.17-2.92-7.99,11.38-12.09,9.67-12.5-4.74-26.11-13.44-32.24-18.53l7.72-38.12c21.47,27.71,117.08,123.62,135.24,47.16,18.12,18.41,31.68,38.98,13.41,55.41Z"/><path d="m224.46,429.24h-24.99c-.17,0-.34-.07-.45-.2-.11-.13-.17-.3-.15-.48.12-.95,11.86-95.43-6.41-139.88-.11-.27,0-.59.24-.75l12.46-7.61-12.11.67c-.19.01-.36-.06-.48-.2-.12-.14-.18-.32-.15-.5.06-.34,5.62-34.61-5.13-46.79-.56-.64-.81-1.48-.68-2.32.13-.84.62-1.58,1.35-2.02,19.18-11.69,26.23-11.11,28.73-9.72.08.05.16.11.21.19.12.18,12.44,18.83,19.54,53.79,6.54,32.23,9.87,85.35-11.4,155.39-.08.25-.31.43-.58.43Zm-24.31-1.21h23.86c21.04-69.54,17.74-122.28,11.26-154.29-6.74-33.26-18.21-51.64-19.29-53.31-5.76-2.92-22.39,6.72-27.39,9.76-.42.26-.71.69-.78,1.17-.07.48.07.97.39,1.34,4.69,5.32,7.02,14.99,6.94,28.75-.05,8.47-1.06,15.96-1.41,18.29l13.76-.76c.29-.02.53.16.61.42.08.26-.03.55-.26.69l-14.07,8.59c17.3,42.92,7.41,130.7,6.38,139.33Z"/><path fill="#53d86a" d="m121.28,344.04s24.99-62.04,50.78-62.84c25.79-.81,66.9,147.44,66.9,147.44l-93.51,28.2-24.18-112.79Z"/><path fill="#11125b" d="m56.79,481.81v66.47h212.8l117.69-47.94v126.49l58.84-32.23,24.64-104.15c14.97-63.28-40.05-121.07-104.02-109.26l-222.09,41-87.86,59.62Z"/><path fill="#11125b" d="m419.83,525.78l-9.06,158.51-4.94,81.93c.07.22.15.44.23.64l-.02.21-73.56,15.26-17.91-66.56-44.96-167.08,106.96-51.76c20.72-10.02,44.58,5.89,43.27,28.86Z"/><path fill="#ffcc97" d="m513.58,885.92c-2.21,1.78-4.95,2.76-7.79,2.76h-83.4c-3.35,0-6.56-1.34-8.92-3.73-9.29-9.42-33.73-33.49-41.51-34.14-9.67-.81-3.22,37.87-3.22,37.87h-33.05s-.81-3.22-8.06-29c-7.25-25.78-6.45-40.28-6.45-40.28l4.01-3.21s0,0,0,0c5.13-2.74,15.63-4.79,33.87,5.63,28.21,16.11,55.62,38.67,71.74,37.87,15.4-.77,62.47-10.37,53.95-18.95,13.07,4.59,29.23,11.41,36.33,18.95,9.58,10.17-1.29,21.23-7.52,26.25Z"/><path fill="#7c5933" d="m430.82,859.67c-16.12.81-43.53-21.75-71.74-37.87-27.1-15.48-37.1-3.45-37.84-2.48,10.43-15.3,11.24-37,11.24-37l-17.91-66.56c39.63-.64,96.21-31.48,96.21-31.48l-4.94,81.93c.07.22.15.44.23.64,19.45,56.61,62.7,63.84,77.16,72.67,14.51,8.86-36.27,19.34-52.4,20.14Z"/><path fill="#53d86a" d="m473.16,287.57l-34.4,9.52c-14.52,4.02-30-1.28-39.01-13.33l-46.58-62.32c15.41-11.4,31.9-35.24,38.44-45.24,34.51,10.13,66.5,25.55,94.42,47.53,23.5,18.5,15.94,55.86-12.88,63.84Z"/><path d="M328.85 287.04c-.07 0-.15-.01-.22-.04l-28.21-11.28c-.31-.12-.46-.48-.34-.79.12-.31.48-.46.79-.34l28.21 11.28c.31.12.46.48.34.79-.09.24-.32.38-.56.38zM207.13 280.59c-.21 0-.42-.11-.53-.32-.16-.29-.05-.66.24-.82l19.35-10.47c.3-.16.66-.05.82.24.16.29.05.66-.24.82l-19.35 10.47c-.09.05-.19.07-.29.07zM137 425.61c-.27 0-.52-.18-.59-.46l-20.96-84.59c-.08-.32.12-.65.44-.73.32-.08.65.12.73.44l20.96 84.59c.08.32-.12.65-.44.73-.05.01-.1.02-.15.02z"/><path fill="#53d86a" d="m56.79,481.81v66.87s26.6,23.36,54.81,12.89c28.21-10.47,51.04-141.82,91.09-149.85,0,0-29.02-11.28-71.74,3.22s-74.16,66.87-74.16,66.87Z"/><path d="M110.2 425.8c-.2 0-.39-.1-.51-.28-.18-.28-.1-.65.18-.84 6.98-4.52 14-7.99 20.88-10.33 22.17-7.52 40.58-8 52.13-7.08 12.54 1 19.72 3.75 20.02 3.87.31.12.47.47.34.78-.12.31-.47.46-.78.34-.29-.11-29.33-11.02-71.33 3.23-6.79 2.3-13.72 5.73-20.62 10.2-.1.07-.21.1-.33.1zM385.27 264.48c-.18 0-.36-.08-.48-.24l-32.24-42.7c-.2-.27-.15-.65.12-.85.27-.2.65-.15.85.12l32.24 42.7c.2.27.15.65-.12.85-.11.08-.24.12-.36.12zM415.1 612.53s-.02 0-.03 0c-.33-.02-.59-.3-.57-.64l4.53-85.07c.57-10.62-4.37-20.5-13.21-26.42-8.84-5.92-19.85-6.74-29.47-2.19l-106.89 50.61c-.3.14-.66.01-.81-.29-.14-.3-.01-.66.29-.8l106.89-50.61c10-4.74 21.47-3.88 30.66 2.28 9.19 6.16 14.33 16.44 13.74 27.49l-4.53 85.07c-.02.32-.28.57-.6.57zM232.12 406.28c-.26 0-.5-.17-.58-.43-11.4-37.81-34.45-91.61-46.71-115.92-.15-.3-.03-.66.27-.81.3-.15.66-.03.81.27 12.28 24.34 35.38 78.24 46.79 116.11.1.32-.08.66-.4.75-.06.02-.12.03-.17.03zM256.84 169.82s18.61 8.48 25.57 2.69c8.07-6.72 6.06-13.45 6.06-13.45 0 0 9.42 2.69 14.13-1.34 4.71-4.03 2.02-10.09 2.02-10.09 0 0-30.28-8.07-47.77 22.19z"/><path d="m304.23,152.61c-.34,2.86.76,5.86,2.88,7.82s5.2,2.82,8.03,2.25c-1.28,2.89-.43,11.84,8.99,12.52-2.02,8.74,7.31,7.77,9.84,6.74s4.44-3.29,5.42-5.83c1.51-3.9.9-8.54-1.56-11.91-1.91-2.63-4.74-4.4-7.37-6.3-3.62-2.61-7.08-5.61-11.29-7.1s-10.44-3.31-13.21.19l-1.73,1.62Z"/></g><g transform="translate(595.956 350.325) scale(.60697)"><rect width="64.62" height="205.7" x="258.61" y="182.84" fill="#fe9526" rx="32.31" ry="32.31" transform="rotate(20.56 290.95 285.71)"/><path fill="#fe9526" d="m420.81,158.36l44.48,4.26c54.35,5.21,92.12,56.53,80.95,110.02l-30.46,145.94H246.43l44.44-208.03c2.37-11.11,10.4-20.16,21.14-23.84l69.1-23.68,39.7-4.67Z"/><path fill="#11125b" d="m349.72,173.48s13.49,44.08,21.27,52.65c0,0,25.69-44.41,46.71-57.65,0,0-49.55,11.56-67.98,5Z"/><path fill="#fae2c9" d="m356.2,147.45s1.56,23.37-11.68,30.38c0,0-5.64,18.85,35.81,14.02,33.48-3.9,51.38-32.72,51.38-32.72,0,0-31.14-21.04-38.93-43.63,0,0-10.9-6.23-23.36-.78-12.46,5.45-16.35,19.48-13.23,32.72Z"/><path fill="#f98000" d="M370.21 226.14s48.97-67.43 38.89-86.3c0 0 10.94-4.07 22.62 19.3 0 0 5.45 16.36 5.45 22.59s-28.03 3.9-37.37 14.02c-9.34 10.13-23.36 27.27-29.58 30.38zM354.75 162.62s-5.56 26.12 15.46 62.73c0 0-14.01-20.26-20.24-21.04-3.85-.48-10.68-.96-15.33-1.26-2.58-.16-4.35-2.64-3.69-5.14 2.55-9.54 8.77-30.32 15.9-35.67 4.67-3.51 7.76-4.09 8.56-3.12 0 .78-.67 3.49-.67 3.49z"/><path fill="#fae2c9" d="m401.83,95.11c-3.7-3.17-8.64-4.05-13.34-2.86-8.81-19.07-25.91-26.79-43.03-20.75-18.53,6.54-30.05,26.73-22.06,49.39,7.99,22.66,16.76,40.23,35.28,33.68,10.38-3.66,21.61-14.11,28.09-26.58,6-1.97,12.21-5.98,15.56-9.89,6.15-7.19,5.93-17.49-.5-22.99Z"/><path d="m401.65,108.71c-3.28-3.32-7.6-5.7-12.16-6.69l.3-1.37c4.82,1.05,9.39,3.56,12.86,7.08l-.99.98Z"/><path fill="#fff" d="m397.51,104.52c-.16,2.21-.31,4.42-.47,6.63"/><rect width="6.64" height="1.4" x="393.95" y="107.13" transform="rotate(-85.94 397.284 107.827)"/><ellipse cx="355.66" cy="107.54" rx="2.22" ry="3.1" transform="rotate(-19.4 355.623 107.542)"/><ellipse cx="333.63" cy="114.54" rx="2.22" ry="3.1" transform="rotate(-19.4 333.596 114.525)"/><path d="M339.49 129.39l-.9-1.07c3.05-2.59 4.98-6.36 5.3-10.35.32-3.99-.98-8.02-3.58-11.07l1.06-.91c2.83 3.33 4.26 7.73 3.91 12.09-.35 4.36-2.46 8.48-5.79 11.31zM351.67 136.29l-.51-1.3c5.29-2.08 9.23-7.5 9.57-13.18l1.4.09c-.38 6.3-4.59 12.09-10.46 14.4z"/><path d="M358.92 155.23l-.47-1.32c10.3-3.64 21.43-14.19 27.7-26.24l.13-.25.27-.09c5.79-1.9 11.91-5.79 15.24-9.68 5.89-6.89 5.7-16.76-.42-22-3.39-2.91-8.03-3.9-12.72-2.72l-.56.14-.24-.53c-8.51-18.42-25.05-26.42-42.16-20.38l-.47-1.32c17.67-6.24 34.75 1.84 43.65 20.6 4.95-1.08 9.8.06 13.41 3.14 6.71 5.75 6.97 16.5.58 23.98-3.43 4.01-9.67 8.01-15.6 10.01-6.54 12.43-17.64 22.88-28.34 26.66zM457.4 265.9s6.23 13.87-18.68 63.65c-24.91 49.78-14.01-13.06-9.34-25.3 4.67-12.24 16.35-43.25 28.03-38.35z"/><polygon fill="#fff" points="375.66 236.42 368.65 236.42 369.59 225.2 370.99 225.2 375.66 236.42"/><path fill="#fae2c9" d="m336.73,287.69s-1.56,16.36,2.34,24.15c2.34,4.67,47.49,5.45,37.37-9.35-10.12-14.8-39.7-14.8-39.7-14.8Z"/><path fill="#fae2c9" d="m451.18,269.77l-62.41-28.14c-5.45-2.46-11.59-2.86-17.31-1.14-22.41,6.73-80.3,24.28-91.55,29.29-14.01,6.23-7.01,24.93,10.12,21.04,17.13-3.9,45.93-12.47,45.93-12.47,0,0,37.37,42.07,51.38,43.63s30.36-3.12,30.36-3.12c0,0,24.13-2.34,35.03-20.26,10.9-17.92-1.56-28.83-1.56-28.83Z"/><path d="M410.55 318.08c-12.95 0-26.08-6.11-33.82-16.46-.19-.26-.14-.62.12-.82.26-.19.62-.14.82.12 9.63 12.86 27.82 18.99 43.26 14.56.31-.09.63.09.72.4.09.31-.09.63-.4.72-3.47 1-7.08 1.47-10.7 1.47zM355.03 315.42c-.39 0-.77 0-1.16 0-6.85-.1-14.25-1.16-15.33-3.32-3.92-7.85-2.46-23.79-2.39-24.47.03-.3.28-.53.58-.53.07 0 7.56.02 16.18 1.86 8.01 1.71 18.67 5.39 24.01 13.19 1.7 2.49 2.03 4.73.99 6.68-2.61 4.87-13.31 6.58-22.87 6.58zm-17.76-27.14c-.22 2.88-1.06 16.53 2.32 23.3.61 1.22 6.12 2.55 14.3 2.67 9.76.15 20.67-1.65 22.99-5.96.82-1.53.51-3.37-.92-5.47-9.09-13.29-34.65-14.44-38.69-14.54z"/><path fill="#fae2c9" d="m347.63,250.29l-20.88,25.82c-3.16,3.91-2.82,9.59.8,13.08l16.97,16.42s5.45,3.12,11.68-3.12c0,0,14.01,7.01,24.91-1.56,0,0,19.46,7.01,28.03-7.79,8.56-14.8-13.23-12.47-13.23-12.47l-6.23-9.35,5.45-12.47"/><path d="m348.03,306.95c-2.28,0-3.77-.82-3.8-.83-.04-.02-.08-.05-.12-.09l-16.97-16.42c-3.86-3.73-4.22-9.69-.84-13.87l14.24-17.6c.2-.25.57-.29.82-.09.25.2.29.57.09.82l-14.24,17.6c-2.99,3.7-2.67,8.98.75,12.29l16.91,16.36c.6.31,5.37,2.5,10.92-3.05.18-.18.45-.22.67-.11.14.07,13.82,6.74,24.29-1.5.16-.12.37-.16.56-.09.19.07,19.11,6.67,27.32-7.53,2.05-3.54,2.45-6.31,1.21-8.23-2.91-4.48-13.77-3.37-13.87-3.36-.22.02-.43-.08-.55-.26l-6.23-9.35c-.11-.17-.13-.38-.05-.56l5.45-12.47c.13-.3.47-.43.77-.3.29.13.43.47.3.77l-5.32,12.17,5.86,8.79c2.01-.17,11.61-.72,14.62,3.92,1.51,2.32,1.11,5.5-1.18,9.45-8.11,14.02-25.86,8.97-28.42,8.15-10.01,7.62-22.57,2.64-24.9,1.6-3.12,2.99-6.08,3.76-8.29,3.76Z"/><path d="M381.11 301.52c-.2 0-.4-.1-.5-.29l-12.97-22.07c-1.74-2.96-2.1-6.52-.98-9.76l4.73-13.72c.11-.3.44-.47.74-.36.3.1.47.44.36.74l-4.73 13.72c-1.01 2.92-.69 6.13.88 8.79l12.97 22.07c.16.28.07.64-.21.8-.09.05-.19.08-.29.08zM356.2 303.07c-.19 0-.37-.09-.48-.26l-13.11-19.39c-3.01-4.45-2.91-10.36.23-14.7l7.77-10.74c.19-.26.55-.32.82-.13.26.19.32.55.13.82l-7.77 10.74c-2.86 3.95-2.95 9.32-.21 13.37l13.11 19.39c.18.27.11.63-.16.81-.1.07-.21.1-.33.1zM249.54 406.69s-.08 0-.12-.01c-.31-.07-.52-.38-.45-.69l42.82-200.23c.07-.32.39-.52.69-.45.31.07.52.38.45.69l-42.82 200.23c-.06.27-.3.46-.57.46z"/><path fill="#9293cb" d="m384.94,344.83l-169.49,22.9-73.84-87.96c-4.7-6.04-4.41-25.32,12.02-27.54l134.02-18.11c5.22-.71,10.43,1.42,13.66,5.58l83.62,105.12Z"/><path d="m215.18,368.42l-.23-.27-73.84-87.96c-2.74-3.53-3.97-11.5-1.21-18.27,1.67-4.09,5.39-9.21,13.65-10.32l134.02-18.11c5.43-.74,10.9,1.5,14.26,5.83l84.32,106.01-170.97,23.1Zm74.44-133.77c-.62,0-1.25.04-1.88.13l-134.02,18.11c-7.64,1.03-11.08,5.75-12.62,9.53-2.59,6.34-1.49,13.75,1.02,16.97l73.59,87.66,168-22.7-82.9-104.22c-2.7-3.47-6.86-5.47-11.19-5.47Z"/><path fill="#595bd4" d="m370.05,346.73l-159.62,21.56-68.82-88.52c-4.7-6.04-1.08-14.9,6.5-15.92l134.1-18.12c5.22-.71,10.43,1.42,13.66,5.58l74.18,95.41Z"/><path d="m210.15,368.99l-69.05-88.82c-2.35-3.02-2.89-6.94-1.44-10.49s4.57-5.97,8.36-6.48l134.1-18.12c5.43-.73,10.9,1.5,14.26,5.83l74.87,96.3-1.12.15-159.99,21.61Zm74.02-122.74c-.62,0-1.25.04-1.88.13l-134.1,18.12c-3.33.45-6.07,2.57-7.34,5.68-1.27,3.11-.8,6.55,1.26,9.2l68.59,88.23,158.13-21.36-73.49-94.52c-2.69-3.47-6.86-5.47-11.19-5.47Z"/><polygon fill="#90e09e" points="310.27 354.65 153.77 375.8 182.24 328.72 338.74 307.58 310.27 354.65"/><path d="m152.53,376.61l29.32-48.48.3-.04,157.82-21.32-29.32,48.48-.3.04-157.82,21.32Zm30.1-47.29l-27.62,45.66,154.87-20.92,27.62-45.66-154.87,20.92Z"/><polygon points="310.27 354.65 338.74 307.58 370.05 346.73 310.27 354.65"/><ellipse cx="232.08" cy="293.17" fill="#fff" rx="13.36" ry="19.19" transform="rotate(-63.26 232.109 293.176)"/><path d="M237.27 308.41c-8.63 0-18.11-5.34-22.07-12.78-2.14-4.02-2.39-8.07-.69-11.38 1.71-3.34 5.18-5.52 9.75-6.14 9.25-1.25 20.33 4.4 24.7 12.61h0c2.14 4.02 2.39 8.07.69 11.38-1.71 3.34-5.18 5.52-9.75 6.14-.86.12-1.74.17-2.63.17zm-10.35-29.46c-.85 0-1.69.05-2.52.17-4.24.57-7.43 2.56-8.98 5.6-1.54 3.01-1.3 6.72.68 10.44 4.18 7.85 14.79 13.27 23.66 12.07 4.24-.57 7.43-2.56 8.98-5.6 1.54-3.01 1.3-6.72-.68-10.44h0c-3.79-7.12-12.87-12.24-21.14-12.24zM348.71 309.17h0c-1.1.67-2.66.36-3.48-.7l-17.43-22.57c-.82-1.06-.59-2.46.51-3.14h0c1.1-.67 2.66-.36 3.48.7l17.43 22.57c.82 1.06.59 2.46-.51 3.14z"/><path fill="#fae2c9" d="m214.68,266.12c-5.19-1.71-10.29-.24-10.29-.24,2.42-3.33,1.53-6.53-.46-9.2-3.7-4.95-10.34-6.66-16.11-4.45-16.13,6.17-54.32,22.15-57.38,36.25-2.71,12.48,21.01,46.5,35.66,66,5.5-9.3,11.05-20.81,19.12-21.65,5.62-.36,31.72-2.5,32.42-10.85.78-9.35-36.49-4.52-36.49-4.52l26.28-10.12c2.38-.92,5.99-2.32,7.88-4.05,9.34-8.57,1.56-18.7-7.79-14.8l8.97-5.3c6.94-4.1,5.87-14.53-1.79-17.05Z"/><path d="M164.68 285.15c-.22 0-.43-.12-.53-.34-.14-.29-.01-.64.28-.78l39.7-18.7c.29-.14.64-.01.78.28.14.29.01.64-.28.78l-39.7 18.7c-.08.04-.16.06-.25.06zM174.02 304.63c-.22 0-.43-.12-.53-.34-.14-.29-.01-.64.28-.78l39.7-18.7c.29-.14.64-.01.78.28.14.29.01.64-.28.78l-39.7 18.7c-.08.04-.16.06-.25.06zM188.97 333.1c-.31 0-.57-.24-.58-.55-.02-.32.23-.6.55-.61 21.35-1.11 27.41-8.18 27.47-8.25.21-.25.57-.29.82-.08.25.2.29.57.08.82-.25.31-6.35 7.54-28.31 8.68-.01 0-.02 0-.03 0z"/><rect width="88.41" height="241.81" x="483" y="184.1" fill="#fe9526" rx="44.2" ry="44.2" transform="rotate(-21.14 527.173 305)"/><path fill="#fae2c9" d="m593.22,401.76h0c-13.2,20.55-40.54,26.51-61.08,13.3l-120.9-95.81c-11.55-9.15-11.06-26.84.97-35.34l16.09-11.36c7.8-5.51,18.07-6.07,26.41-1.43l125.21,69.52c20.54,13.21,26.49,40.57,13.29,61.12Z"/><path fill="#fe9526" d="m559.39,426.37c-14.47,4.14-111.96-62.58-134.11-77.92,2.28.16,6.45-4.94,13.44-18.9,24.91-49.78,18.68-63.65,18.68-63.65h0v-.02s94.99,35.06,131.04,81.88c36.05,46.82-12.7,73.94-29.05,78.61Z"/><path d="M544.19 309.98c-.11 0-.22-.03-.32-.1-38.6-25.26-83.5-42.28-86.52-43.4-.17-.01-.33-.1-.43-.24-.11-.15-.14-.35-.08-.52.05-.15.16-.29.3-.36s.31-.09.46-.03c.47.17 47.03 17.49 86.91 43.58.27.18.35.54.17.81-.11.17-.3.26-.49.26zM513.35 406.35c-.1 0-.2-.03-.3-.08-33.82-20.01-75.99-48.94-88.1-57.33-.27-.18-.33-.55-.15-.81.18-.26.55-.33.81-.15 12.11 8.39 54.25 37.3 88.03 57.29.28.16.37.52.21.8-.11.18-.3.29-.5.29z"/><path d="m465.53,268.58c-.23,0-.46-.14-.54-.37l-7.17-18.58c-6.5-16.84-2.32-35.83,10.64-48.39.23-.22.6-.22.83.01.22.23.22.6-.01.83-12.63,12.23-16.7,30.72-10.37,47.12l7.17,18.58c.12.3-.03.64-.33.76-.07.03-.14.04-.21.04Z"/><path fill="#b8b9d8" d="m515.79,418.58H211.22c-53.32,0-92.11,50.63-78.27,102.16l69.87,260.12s81.74,51.42,181.39,21.04c0,0-10.9-90.38-8.56-111.41,2.34-21.04,21.8-133.23,21.8-133.23l64.6,4.73h0c39.1,5.4,72.28-28.59,65.98-67.58l-12.25-75.83Z"/><path fill="#11125b" d="m297.81,858.77H80.94c-4.39,0-8.37-1.92-11.25-5.02-2.87-3.1-4.66-7.39-4.66-12.12.03-.65.07-1.29.13-1.92,4.16-45.68,80.01-48.55,97.46-66.64,18.79-19.48,29.64-33.5,29.64-33.5,23.85-3.12,25.62,25.71,44.1,35.06,18.47,9.35,57.11,8.57,57.11,8.57l2.83,49.39,1.5,26.18Z"/><path d="m298.43,859.35H80.94c-4.41,0-8.56-1.85-11.68-5.2-3.1-3.35-4.81-7.8-4.81-12.52.03-.68.07-1.34.14-1.98,2.76-30.37,36.98-42.1,64.48-51.53,14.62-5.01,27.25-9.34,33.14-15.45,18.55-19.23,29.49-33.31,29.6-33.45l.15-.19.24-.03c14.52-1.89,20.98,7.64,27.81,17.73,4.55,6.72,9.25,13.66,16.62,17.39,18.13,9.18,56.45,8.51,56.84,8.51h.56s4.4,76.74,4.4,76.74Zm-105.85-119.24c-1.38,1.75-12.11,15.3-29.53,33.36-6.09,6.31-18.84,10.69-33.6,15.75-27.18,9.32-61,20.92-63.7,50.54-.06.62-.1,1.26-.13,1.9,0,4.4,1.6,8.57,4.5,11.7,2.89,3.11,6.74,4.83,10.82,4.83h216.25l-4.27-74.4c-2.24.02-10.89.04-21.12-.79-10.97-.89-26.07-2.98-35.7-7.85-7.64-3.87-12.43-10.94-17.06-17.78-6.59-9.73-12.81-18.92-26.46-17.25Z"/><path d="M297.81 858.77H80.94c-4.39 0-8.37-1.92-11.25-5.02-2.87-3.1-4.66-7.39-4.66-12.12.03-.65.07-1.29.13-1.92l231.14-7.11 1.5 26.18zM246.42 798.21c-.31 0-.57-.25-.58-.56l-11.57-306.62c-.65-17.09 5.62-33.19 17.64-45.34 12.02-12.15 28.08-18.57 45.13-18.11l187.62 5.22c.32 0 .58.28.57.6 0 .32-.3.57-.6.57l-187.62-5.22c-16.77-.46-32.48 5.84-44.27 17.76-11.79 11.92-17.94 27.72-17.31 44.48l11.57 306.62c.01.32-.24.59-.56.61 0 0-.02 0-.02 0z"/><path d="m390.45,600.69s-.06,0-.09,0c-.32-.05-.54-.35-.48-.67l12.46-77.91c.05-.32.35-.54.67-.48.32.05.54.35.48.67l-12.46,77.91c-.05.29-.29.49-.58.49Z"/><path d="m399.93,547.19c-.16,0-.33-.07-.44-.2-.21-.24-.18-.61.06-.82,11.41-9.81,18.7-24.03,20-39.03.03-.32.32-.56.63-.53.32.03.56.31.53.63-1.32,15.3-8.76,29.81-20.4,39.81-.11.09-.25.14-.38.14Z"/><path fill="#7c5933" d="m379.46,108.88c-.24.9-1.53.92-1.78.03-1.15-4.12-3.41-7.85-2.5-12.03.73-3.33.81-9.58-3.01-11.43-2.89-1.4-7.06,1.18-11.42,3.02-12.95,5.44-37.21,15.16-52.15,6.17-4.58-2.75-11.21-10.84-13.14-15.82-1.93-4.98-2.63-10.34-3.31-15.64,13.15,3.73,27.18,4.28,40.58,1.6,8.66-1.74,17.22-4.81,26.04-4.3s18.25,6.03,19.44,14.79c5.11-3.71,12.81-3.26,17.46,1.01,4.56,4.19,1.62,16.26,1.62,16.26-4.3-.96-9.31-.7-12.64,3.49-2.82,3.55-3.96,8.34-5.17,12.86Z"/><path fill="#11125b" d="m400.9,850.97c-.65,11.97-1.88,22.59-1.88,22.59,0,0-196.97,1.56-227.33,0-12.21-.63-28-3.92-32.7-14.8-1.21-2.81-1.96-5.39-2.27-7.79-1.46-11.45,7.15-18.79,24.07-26.49,16.85-7.67,66.95-48.3,66.95-48.3,0,0,7.01-30.38,27.25-31.94s17.91,31.16,60.72,35.84c42.82,4.67,63.35-17.17,63.35-17.17,0,0,1.27,10.94,14.5,38.21,4.56,9.4,6.63,18.97,7.37,27.49.56,6.36.38,14.65-.04,22.37Z"/><path d="m400.9,850.97c-.65,11.97-1.88,22.59-1.88,22.59,0,0-196.97,1.56-227.33,0-12.21-.63-28-3.92-32.7-14.8-1.21-2.81-1.96-5.39-2.27-7.79h264.18Z"/><path d="m244.06,874.84c-33.7,0-62.33-.17-72.4-.69-10.19-.53-28.04-3.19-33.2-15.16-1.24-2.86-1.99-5.46-2.32-7.95-1.6-12.55,8.6-19.91,24.41-27.1,16.13-7.34,63.6-45.62,66.67-48.1.67-2.66,8.16-30.69,27.72-32.2,8.92-.69,13.51,4.94,19.32,12.07,7.66,9.41,17.18,21.11,41.52,23.77,21.99,2.4,37.92-2.36,47.42-6.78,10.26-4.77,15.39-10.15,15.44-10.21l.86-.91.15,1.25c.01.11,1.43,11.2,14.45,38.02,4.05,8.34,6.55,17.66,7.43,27.7.49,5.51.47,13.07-.04,22.45-.64,11.86-1.87,22.52-1.89,22.63l-.06.51h-.52c-1.31.01-88.11.69-154.96.69Zm12.29-130.07c-.43,0-.86.02-1.31.05-19.58,1.51-26.66,31.19-26.72,31.49l-.04.2-.16.13c-.5.41-50.36,40.77-67.08,48.38-18.38,8.36-25.04,15.62-23.73,25.88.31,2.37,1.04,4.87,2.23,7.63,4.91,11.38,22.28,13.94,32.19,14.45,29.24,1.5,215.51.09,226.77,0,.25-2.26,1.27-11.7,1.82-22.04h0c.51-9.33.52-16.83.04-22.29-.87-9.9-3.33-19.08-7.32-27.29-10.93-22.52-13.71-33.84-14.37-37.26-1.84,1.71-6.76,5.84-14.98,9.67-9.63,4.48-25.79,9.31-48.04,6.88-24.81-2.71-34.51-14.62-42.3-24.19-5.29-6.49-9.52-11.7-17.01-11.7Z"/></g></svg>