<svg xmlns="http://www.w3.org/2000/svg" viewBox="40 53 1075.51 873.611"><path fill="#167ffc" d="m57.92,288.26c-5.42-92.97,49.47-177.03,122.82-204.36,47.12-17.56,107.71-12,150.81,13.62,65.17,38.74,41.45,94.28,102.05,129.03,60.75,34.84,107.04-8.11,177.91,25.65,75.54,35.98,94.31,118.77,96.63,129.83,17.84,85.01-30.17,175.19-113.79,220.39-118.22,63.9-274.09,19.77-319.69-48.09-25.3-37.65-11.02-74.22-51.48-104.19-37.84-28.02-73.39-13.1-106.56-38.47-21.71-16.6-52.38-48.09-58.7-123.42Z" transform="translate(110.216 -17.114) scale(1.41224)"/><g transform="translate(431.18 53.49)"><rect width="365.43" height="599.7" x="5.32" y="-.49" fill="#b8b9d8" rx="44.87" ry="44.87"/><path fill="#f9fffa" d="m318.24,8.64h-37.57c-4.01,0-7.81,1.79-10.36,4.87l-4.94,5.97c-4.2,5.07-10.55,8.01-17.27,8.01h-116.26c-5.87,0-11.49-2.25-15.64-6.25l-9.13-8.82c-2.51-2.42-5.86-3.78-9.35-3.78h-39.89c-24.44,0-44.25,19.81-44.25,44.25v493.83c0,24.44,19.81,44.25,44.25,44.25h260.41c24.44,0,44.25-19.81,44.27-40.28V56.86c-.02-28.4-19.84-48.21-44.27-48.21Z"/><rect width="327.61" height="365.13" x="24.53" y="105.97" fill="#fff"/><path fill="#b8b9d8" stroke="#000" stroke-miterlimit="10" stroke-width=".64" d="m345.63,499.83l-5.59-6.81c-.3-.32-.8-.32-1.1,0l-5.59,5.9c-.49.51-1.33.16-1.33-.57v-17.1c0-.89.75-1.62,1.67-1.62h11.61c.92,0,1.67.72,1.67,1.62v18.01c0,.72-.84,1.08-1.33.57Z"/><path fill="#f98000" d="m45.84,499.37c-.82,0-1.6-.31-2.18-.89l-6.96-6.91c-2.75-2.72-2.77-7.15-.05-9.89,2.44-2.46,6.32-2.77,9.11-.71,3.1-2.31,7.48-1.67,9.79,1.42,2.07,2.78,1.8,6.66-.65,9.12l-6.9,6.96c-.57.58-1.36.9-2.17.91Z"/><rect width="233.66" height="9.76" x="34.6" y="518.99" fill="#b8b9d8"/><rect width="102.8" height="9.76" x="34.6" y="536.99" fill="#b8b9d8"/><rect width="79" height="9.76" x="62.05" y="63.26" fill="#b8b9d8"/><rect width="79" height="9.76" x="272.83" y="63.26" fill="#b8b9d8"/><rect width="54.6" height="9.76" x="62.05" y="77.91" fill="#b8b9d8"/><circle cx="39.18" cy="75.46" r="12.2" fill="#b8b9d8"/><polygon fill="#fff" stroke="#000" stroke-linecap="round" stroke-linejoin="round" stroke-width=".76" points="96.98 488.64 102.78 491.08 104.91 498.09 108.27 494.43 114.15 499.09 118.03 480.1 96.98 488.64"/><polyline fill="#fff" stroke="#000" stroke-linecap="round" stroke-linejoin="round" stroke-width=".76" points="102.78 491.08 113.45 484.67 106.44 492.91 108.27 494.43"/><path fill="#fff" stroke="#000" stroke-linecap="round" stroke-linejoin="round" stroke-width=".76" d="m85.39,489.4c0-4.97-4.03-9-9-9s-9,4.03-9,9c0,4.68,3.58,8.53,8.15,8.96l9.85.04-2.64-2.64c1.63-1.63,2.64-3.88,2.64-6.36Z"/><circle cx="248.89" cy="16.14" r="5.34"/><rect width="104.32" height="5.8" x="128.86" y="13.24"/></g><g transform="translate(454.775 166.65) scale(.63884)"><path fill="#fe9526" d="m393.16,139.7s14.26-17.59-1.43-37.57c0,0,9.99-7.13,9.51-13.79-.48-6.66-16.17-4.76-16.17-4.76,0,0-9.99-58.96-76.08-27.1,0,0,12.36-23.78-.95-21.4-13.31,2.38-24.25,26.15-23.77,35.19,0,0-33.76-9.03-37.56-.95-3.8,8.08,10.46,13.31,10.46,13.31,0,0-29.48,8.56-19.5,42.32,0,0-14.26,29.48,27.1,22.82,41.37-6.66,128.38-8.08,128.38-8.08Z"/><rect width="119.35" height="268.5" x="97.11" y="285.53" fill="#fae2c9" rx="52.05" ry="52.05" transform="rotate(-14.34 156.784 419.763)"/><path fill="#fe9526" d="m367.63,203.93c1.44,1.21,3.37,2.46,5.07,1.65,1.59-.76,1.94-2.85,1.89-4.62-.15-4.81-1.81-9.55-4.68-13.41,4.38,3.88,8.92,7.87,14.49,9.65s12.48.78,15.95-3.94c3.48-4.73,2.26-11.88-1.82-16.11s-10.31-5.84-16.17-5.48c-8.3.5-16.17,4.83-21.37,11.26-1.96,2.43-5.5,6.86-4.33,10.14,1.42,3.95,7.83,8.21,10.95,10.85Z"/><path fill="#f98000" d="m504.43,318.97l-24.71,134.53-2.28,12.4-6.52,35.52h0s-10.95,59.59-10.95,59.59H113.92l8.21-38.69h0s31.94-150.66,31.94-150.66l15.43-72.8,1.11-5.22,2.39-11.29,1.39-6.54,7.36-1.67,18.1-4.12,17.07-3.88,2.96-.68,10.83-2.46s.02,0,.02,0l1.12-.26h0l18.18-4.14h143.13s17.52,4.59,40.31,14.56c10.76,4.71,22.71,10.61,34.53,17.81,8.86,5.39,17.66,11.5,25.86,18.36,0,0,0,0,0,0,2.48,2.08,4.9,4.23,7.26,6.44,1.12,1.06,2.22,2.12,3.3,3.2Z"/><path fill="#f9fffa" d="m477.44,465.89l-6.52,35.52h0s-10.95,59.59-10.95,59.59H113.92l8.21-38.69h0s31.94-150.66,31.94-150.66l15.43-72.8,1.11-5.22,2.39-11.29,1.39-6.54,7.36-1.67,18.1-4.12,17.07-3.88-.51,1.97-5.66,21.73-5.17,19.84-7.75,29.7h0s-2,7.67-2,7.67l3.98.09,62.12,1.32,32.22.68,80.93,1.72s29.49-67.16,58.38-77.68c10.76,4.71,22.71,10.61,34.53,17.81-9.46,3.18-20.66,9.41-30.99,19.4-.08.07-.15.15-.23.22h0c-6.08,5.92-11.85,13.14-16.78,21.8h0c-1.36,2.4-2.65,4.89-3.87,7.5-8.08,17.29-12.86,39.53-11.07,67.55.73,11.46,3.22,20.81,7.01,28.39,7.08,14.16,18.66,22.16,31.77,26.32h0c8.44,2.69,17.51,3.78,26.39,3.88,2.43.03,4.84,0,7.22-.11Z"/><path d="m354.58,418.5c.33-2.96,3.02-5.11,5.99-4.91,9.49.64,35.43,5.88,74.43,40.42,49.93,44.22,36.14,57.06,21.4,53.26-14.74-3.8-53.26-24.25-69.42-41.37-14.15-14.98-33.79-34.83-32.4-47.4Z"/><path fill="#11125b" d="m119.98,279.66s-54.92-17.76-92.01,6.97c-37.09,24.73-6.66,56.59,36.61,60.39,43.27,3.8,55.4-67.36,55.4-67.36Z"/><path fill="#fae2c9" d="m393.16,258.58s-30.91,37.57-106.51,40.89c-75.6,3.33-60.39-35.19-60.39-35.19,23.93-6.21,36.3-21.81,42.69-36.7,7.31-17.06,6.77-33.2,6.77-33.2l29.54-12.8,56.05-24.29c-8.08,52.31,31.86,101.28,31.86,101.28Z"/><path d="m351.79,179.64s-34.24,82.74-65.14,71.33c-10.54-3.89-15.61-13.03-17.7-23.39,7.31-17.06,6.77-33.2,6.77-33.2l29.54-12.8,46.54-1.94Z"/><path fill="#fae2c9" d="m398.15,137.87c-4.9-6.83-12.82-10.35-21.2-10.31-6.91-35.61-32.41-55.62-63.62-52.55-33.78,3.32-61.44,32.4-57.38,73.69,4.06,41.29,11.51,74.35,45.29,71.04,18.92-1.86,42.08-14.74,58.08-32.96,10.89-.83,22.96-4.99,30.18-10.16,13.29-9.52,17.16-26.87,8.65-38.75Z"/><path d="m392.24,160.61c-4.13-6.92-10.4-12.69-17.64-16.24l1.06-2.17c7.66,3.75,14.28,9.85,18.65,17.17l-2.07,1.24Z"/><rect width="11.47" height="2.42" x="379.52" y="156.11" transform="rotate(-72.14 385.235 157.318)"/><ellipse cx="315.56" cy="139.65" rx="3.84" ry="5.36" transform="rotate(-5.61 315.693 139.654)"/><ellipse cx="275.72" cy="142.27" rx="3.84" ry="5.36" transform="rotate(-5.61 275.77 142.3)"/><path d="M279.42 169.6l-1.08-2.16c6.18-3.08 10.98-8.61 13.17-15.17 2.19-6.56 1.66-13.86-1.43-20.04l2.16-1.08c3.38 6.75 3.95 14.72 1.57 21.88-2.39 7.16-7.63 13.2-14.38 16.57zM297.02 186.2l-.32-2.39c9.73-1.31 18.57-8.76 21.5-18.14l2.31.72c-3.24 10.4-12.68 18.37-23.48 19.82zM339.58 205.72l-1.36-2c7.57-5.14 14.37-11.11 20.2-17.74l.33-.37.49-.04c10.5-.8 22.38-4.79 29.56-9.94 6.18-4.43 10.45-10.74 12.02-17.77 1.56-6.98.26-13.83-3.65-19.29-4.47-6.24-11.78-9.81-20.08-9.81-.05 0-.09 0-.14 0h-1s-.19-.98-.19-.98c-6.67-34.4-31.13-54.64-62.32-51.58l-.24-2.4c15.77-1.55 30.23 2.61 41.8 12.03 11.5 9.36 19.41 23.35 22.93 40.52 8.74.24 16.42 4.14 21.19 10.81 4.32 6.03 5.76 13.57 4.05 21.23-1.7 7.61-6.31 14.43-12.97 19.21-7.4 5.3-19.52 9.43-30.3 10.34-5.89 6.64-12.73 12.62-20.33 17.78z"/><path d="m296.75,221.16c-4.96,0-9.46-.85-13.42-2.54l.95-2.22c4.79,2.04,10.46,2.75,16.85,2.12,11.52-1.13,24.69-6.39,37.1-14.81l1.36,2c-12.73,8.64-26.31,14.04-38.22,15.22-1.58.15-3.11.23-4.61.23Z"/><path fill="#fae2c9" d="m393.03,561h-133.23c-9-14.42-17.47-30.65-25.51-48.15h0c-15.64-34.06-29.68-72.89-42.9-112.43-3.02-9.01-5.99-18.06-8.93-27.09-6.04-18.57-1.71-38.42,10.37-52.65,3.59-4.23,7.87-7.97,12.76-11.03.56-.35,1.13-.69,1.71-1.03,8.66-4.99,18.11-7.37,27.44-7.37,16.94,0,33.47,7.84,44.08,22.03,1.3,1.74,2.51,3.57,3.62,5.5l11.74,20.33,49.67,86.02,45.45,78.73c8.62,14.92,9.45,32.21,3.75,47.14Z"/><path fill="#fae2c9" d="m513.46,325.57v83.46l-33.74,44.46-9.5,12.51-10.27,13.53-17.16,22.61-44.66,58.85h-129.66c-1.49-14.52,2.31-29.62,11.83-42.16l63.52-83.7.06-.07,10.68-14.08,5.62-7.41,55.94-73.71,6.81-8.97c18.59-24.5,52.42-30.61,78.2-15.13,1.85,1.11,3.66,2.33,5.42,3.67,2.5,1.9,4.81,3.95,6.92,6.14Z"/><ellipse cx="152" cy="275.8" fill="#f2f2f2" rx="111.37" ry="25.44" transform="rotate(-7.9 152.072 275.917)"/><path fill="#7c5933" d="m77.9,282.35s-16.89,2.01-14.74-14.74c2.38-18.54,16.64-29.48,16.64-29.48-2.09-12.98,19.59-58.19,74.18-55.16,34.24,1.9,45.65,30.91,45.65,30.91,0,0,23.77.48,33.76,20.92,10.57,21.64-2.85,29.96-7.61,31.86-4.75,1.9-147.88,15.69-147.88,15.69Z"/><path fill="#11125b" d="m279.38,321.98c3.6-8.26-.5-17.85-8.95-20.96-15.36-5.66-39.2-15.61-44.98-24.61-8.71-13.55-14.41-41.13-25.35-41.61-11.02-.48-26.63,8.56-16.17,49.45,0,0-106.04-22.82-132.66,29.01-26.63,51.83,36.14,56.59,81.31,55.63,45.17-.95,30.91,26.63,44.22,33.76,11.82,6.33,83.65-37.21,102.58-80.67Z"/><path fill="#f98000" d="m513.46,323.25v107.19c-19.15,36.32-37.07,63.04-42.54,70.98h0c-1.05,1.52-1.64,2.35-1.69,2.43,0-.02.02-.04.03-.07.05-.1.1-.2.14-.31,0-.02.01-.04.02-.06.04-.1.09-.21.12-.33.02-.04.03-.09.05-.14.03-.09.06-.18.09-.27.02-.05.03-.1.05-.16.02-.08.04-.15.06-.23.02-.09.05-.18.06-.27.03-.13.05-.26.07-.39.02-.1.03-.2.04-.3.01-.09.02-.17.03-.26.01-.14.02-.29.03-.44,0-.18.01-.36.01-.54,0-4.56-2.78-11.27-10.08-20.55-3.1-3.94-7.02-8.35-11.89-13.25-.31-.31-.63-.64-.96-.96-1.05-1.05-2.15-2.12-3.29-3.21h0c-2.69-2.58-5.63-5.28-8.82-8.11-8.25-7.3-15.91-13.3-22.95-18.21-26.28-18.34-43.99-21.71-51.48-22.21-.13,0-.26-.01-.39-.01-.18,0-.36,0-.54.03-.09,0-.19.02-.28.03-.15.02-.31.05-.46.09l-.23.06c-.17.05-.34.1-.5.17-.08.03-.16.06-.24.1-.08.03-.16.07-.23.11-.07.03-.15.07-.21.11-.05.02-.1.05-.15.08-.07.04-.14.08-.21.12-.18.11-.35.23-.51.37-.06.04-.11.09-.17.14-.06.05-.11.1-.17.15l28.37-36.85,35.34-45.9h0s16.78-21.8,16.78-21.8h0s.12-.17.12-.17c0,0,.03-.02.1-.06,1.86-1,28.33-14.64,56.85-1.04,0,0,0,0,0,0,3.5,1.67,7.04,3.75,10.56,6.32,3.3,2.41,6.32,4.95,9.03,7.61Z"/><path fill="#fe9526" d="m279.04,92.62s-9.99,16.17,13.79,21.4,50.4,2.85,50.4,2.85c0,0-9.03,33.76,9.51,28.53s13.31-24.73,34.71-17.59c0,0-20.92-55.63-58.01-56.11-37.09-.48-50.4,20.92-50.4,20.92Z"/><path fill="#fe9526" d="m282.37,91.67s-17.78,22.25-27.1,24.73c-9.32,2.47,23.77-40.42,51.35-40.42s-24.25,15.69-24.25,15.69Z"/><path d="M372.24 481.11c-.32 0-.63-.16-.81-.44l-29.01-46.12c-.28-.44-.15-1.03.3-1.31.44-.28 1.03-.15 1.31.3l29.01 46.12c.28.44.15 1.03-.3 1.31-.16.1-.33.15-.51.15zM356.07 415.97c-.2 0-.41-.07-.58-.2-.41-.32-.49-.92-.17-1.33l59.91-77.03c.32-.41.92-.49 1.33-.17.41.32.49.92.17 1.33l-59.91 77.03c-.19.24-.47.37-.75.37zM114.97 240.35c-.12 0-.25-.02-.37-.07-10.92-4.6-23.59-4.95-34.75-.96-.49.18-1.04-.08-1.22-.58-.18-.49.08-1.04.58-1.22 11.6-4.14 24.77-3.78 36.13 1 .48.2.71.76.51 1.25-.15.36-.51.58-.88.58zM87.1 251.1c-.44 0-.84-.31-.93-.76-.1-.51.23-1.02.74-1.12 8.32-1.7 16.83-2.16 25.29-1.38.52.05.91.51.86 1.03s-.52.9-1.03.86c-8.27-.76-16.6-.31-24.74 1.35-.06.01-.13.02-.19.02zM126.38 211.33c-.25 0-.51-.1-.7-.3-3.38-3.64-7.95-6.05-12.87-6.79-.52-.08-.88-.56-.8-1.08.08-.52.57-.88 1.08-.8 5.34.81 10.3 3.43 13.97 7.38.36.38.34.99-.05 1.34-.18.17-.42.25-.65.25zM132.02 202.88c-.19 0-.38-.06-.55-.18-3.37-2.39-7.04-4.31-10.92-5.72-.49-.18-.75-.73-.57-1.22.18-.49.73-.75 1.22-.57 4.04 1.47 7.86 3.47 11.37 5.96.43.3.53.9.23 1.33-.19.26-.48.4-.78.4zM155.39 210.7c-.32 0-.63-.16-.81-.46-5.82-9.56-15.88-16.42-26.9-18.35-.52-.09-.86-.58-.77-1.1.09-.52.59-.86 1.1-.77 11.55 2.02 22.1 9.21 28.2 19.23.27.45.13 1.03-.32 1.31-.15.09-.33.14-.49.14zM182.02 216.82c-.37 0-.72-.22-.88-.58-.2-.48.02-1.04.51-1.24 5.72-2.4 12-3.37 18.18-2.79.52.05.91.51.86 1.04-.05.52-.5.91-1.04.86-5.86-.55-11.83.37-17.27 2.65-.12.05-.25.07-.37.07zM218.81 241.53c-.4 0-.77-.25-.9-.65-2.19-6.55-7.2-12.26-13.42-15.28-.47-.23-.67-.8-.44-1.27.23-.47.8-.67 1.27-.44 6.77 3.28 12.01 9.25 14.4 16.38.17.5-.1 1.04-.6 1.2-.1.03-.2.05-.3.05zM141.5 177.26c-1.44 0-2.89-.12-4.32-.42-4.42-.93-9.31-4.15-10.25-9.28-.86-4.69 1.73-9.65 7.7-14.74l.88-.75c3.89-3.29 7.9-6.7 8.68-11.4.77-4.63-1.77-9.63-7.55-14.86-.7-.63-1.41-1.26-2.13-1.89-4.02-3.51-8.17-7.15-9.92-12.28-2.96-8.68 2.02-17.56 6.93-25.19.28-.44.87-.57 1.31-.29.44.28.57.87.29 1.31-4.67 7.26-9.42 15.67-6.73 23.55 1.59 4.65 5.55 8.12 9.38 11.47.73.64 1.45 1.27 2.16 1.91 6.29 5.69 9.03 11.27 8.15 16.58-.89 5.38-5.37 9.18-9.33 12.54l-.87.74c-5.41 4.62-7.79 8.98-7.06 12.96.78 4.26 4.97 6.96 8.77 7.76 4.3.9 8.95.01 13.06-.77.52-.1 1.01.24 1.11.76.1.52-.24 1.01-.76 1.11-2.97.57-6.21 1.18-9.48 1.18z"/><path d="m149,152.58c-.27,0-.54-.12-.73-.34-.34-.4-.28-1,.13-1.34,6.85-5.68,8.21-16.93,2.91-24.07-1.38-1.86-3.09-3.42-4.9-5.06-1.96-1.78-3.98-3.63-5.53-5.88-3.99-5.82-4.1-14.02-.27-19.95.29-.44.87-.57,1.32-.28.44.29.57.87.28,1.32-3.43,5.3-3.33,12.64.24,17.84,1.42,2.08,3.28,3.76,5.24,5.55,1.8,1.64,3.65,3.33,5.15,5.34,5.87,7.92,4.37,20.38-3.22,26.67-.18.15-.39.22-.61.22Z"/><rect width="111.98" height="35.66" x="17.76" y="11.78" fill="#f98000" rx="11.05" ry="11.05"/><path fill="#fff" d="M52.23 20.02h5.7v12.88h6.86v4.46h-12.56v-17.34zM67.26 20.02h5.7v17.34h-5.7v-17.34zM74.94 20.02h5.85l3.07 12.63h.47l3.1-12.63h5.77l-4.61 17.34h-9.04l-4.61-17.34zM95.17 20.02h14.69v4.46h-9.09v1.98h9.09v4.46h-9.09v1.98h9.09v4.46h-14.69v-17.34z"/><circle cx="37.72" cy="29.62" r="4.52" fill="#fff"/><path d="M125.45 504.89c-.07 0-.13 0-.2-.02-.51-.11-.84-.62-.73-1.13l28.53-132.19c.11-.51.61-.84 1.13-.73.51.11.84.62.73 1.13l-28.53 132.19c-.1.45-.49.75-.93.75zM237.81 281.97l-.93-2.23c16.15-6.7 24.98-13.66 24.23-19.09-.61-4.42-7.65-8.14-19.82-10.45l.45-2.37c13.65 2.6 20.98 6.8 21.77 12.49 1.19 8.59-13.32 16.52-25.7 21.65z"/></g><g transform="translate(312.32 143.73)"><path fill="#f98000" d="m123.71,80.35H-2.68c-8.98,0-16.27,7.29-16.27,16.28v33.36c0,8.98,7.29,16.27,16.27,16.27h86.48s49.17,16.77,49.17,16.77l-5.5-17.22c7.17-1.69,12.52-8.14,12.51-15.83v-33.36c0-8.98-7.29-16.27-16.27-16.27Z"/><path d="m133.56,163.62l-49.82-17H-2.67c-9.18,0-16.65-7.46-16.65-16.64v-33.36c0-9.18,7.46-16.65,16.64-16.65h126.39c9.18,0,16.65,7.46,16.65,16.64v33.36c0,7.62-5.08,14.18-12.41,16.1l5.61,17.55ZM-2.68,80.74c-8.76,0-15.88,7.13-15.88,15.89v33.36c0,8.76,7.13,15.88,15.89,15.88h86.54s.06.02.06.02l48.45,16.53-5.4-16.89.4-.09c7.2-1.7,12.22-8.06,12.22-15.46v-33.36c0-8.76-7.13-15.88-15.89-15.88H-2.68Z"/><path fill="#fff" d="M19.16 128.28c-1.4 0-2.75-.55-3.74-1.54l-11.93-11.93c-4.71-4.7-4.72-12.32-.02-17.03 4.22-4.23 10.9-4.73 15.69-1.17 5.35-3.96 12.89-2.84 16.85 2.51 3.55 4.8 3.06 11.48-1.17 15.69l-11.93 11.93c-.99.99-2.34 1.55-3.74 1.55zM52.26 110.83v-7.16c2.92-.42 5.7-1.6 7.71-4.28h6.05s0 24.33 0 24.33h-9.59s0-13.87 0-13.87c-1.43.59-2.88.9-4.17.97zM77.46 116.66c2.22 0 3.55-.52 3.55-2.02s-1.49-2.4-3.65-2.4c-1.84 0-3.68.35-5 1.29l-1.53-.76 2.12-13.38h16.16s0 6.88 0 6.88h-10.46s-.35 1.95-.35 1.95c.87-.14 1.81-.21 2.78-.21 5.35 0 9.25 2.81 9.25 7.72s-4.1 8.62-11.36 8.62c-3.93 0-8.55-1.18-10.98-3.82l3.68-5.84c1.29 1.11 3.86 1.98 5.8 1.98zM102.41 98.69c5.8 0 10.04 2.81 10.04 8.1 0 3.61-1.98 6.08-6.6 9.77h7.09s0 7.12 0 7.12h-21.55s0-1.04 0-1.04l6.74-7.02c3.79-3.93 5.07-5.42 5.07-6.78s-.97-2.26-2.47-2.26c-1.56 0-2.68 1.04-2.95 2.82l-7.06-2.12c.69-5.14 4.83-8.58 11.68-8.59z"/><rect width="140.01" height="65.89" x="489.56" y=".65" fill="#f98000" rx="16.27" ry="16.27"/><path d="m613.31,66.92h-107.48c-9.18,0-16.65-7.46-16.65-16.64V16.92c0-9.18,7.46-16.65,16.64-16.65h107.48c9.18,0,16.65,7.46,16.65,16.64v33.36c0,9.18-7.46,16.65-16.64,16.65ZM505.83,1.03c-8.76,0-15.88,7.13-15.88,15.89v33.36c0,8.76,7.13,15.88,15.89,15.88h107.48c8.76,0,15.88-7.13,15.88-15.89V16.91c0-8.76-7.13-15.88-15.89-15.88h-107.48Z"/><path fill="#fff" d="M569.71 20.17c5.8 0 10.04 2.81 10.04 8.1 0 3.61-1.98 6.08-6.6 9.77h7.09s0 7.12 0 7.12h-21.55s0-1.04 0-1.04l6.74-7.02c3.79-3.93 5.07-5.42 5.07-6.78s-.97-2.26-2.47-2.26c-1.56 0-2.68 1.04-2.95 2.82l-7.06-2.12c.69-5.14 4.83-8.58 11.68-8.59zM593.87 20.17c7.12 0 11.96 5.25 11.96 12.75 0 7.61-4.83 12.89-11.95 12.89-7.12 0-11.92-5.28-11.92-12.89 0-7.47 4.8-12.76 11.92-12.76zm.04 17c1.98 0 2.99-1.63 2.99-4.24 0-2.64-1.01-4.24-2.99-4.24-1.98 0-2.99 1.63-2.99 4.24s1.01 4.24 2.99 4.24zM545.13 26.47c-.97-1.16-2.41-1.84-3.92-1.83h-7.76s.82-2.21.82-2.21c.58-1.46.67-3.07.27-4.58-.85-3.03-3.61-5.12-6.76-5.13-.67 0-1.29.4-1.56 1.01l-4.85 10.91v22.13s17.67 0 17.67 0c2.47 0 4.58-1.77 5.02-4.19l2.17-11.92c.27-1.49-.13-3.02-1.1-4.18z"/><path fill="#11125b" d="m521.38,24.64h-4c-2.82,0-5.1,2.29-5.11,5.11v11.92c0,2.82,2.29,5.1,5.11,5.11h4s0-22.13,0-22.13h0Z"/><path d="M405.71 473.84c-.11 0-.22-.07-.27-.18l-3.77-8.92c-.06-.15 0-.32.16-.39.15-.06.32 0 .39.16l3.77 8.92c.06.15 0 .32-.16.39-.04.02-.08.02-.11.02zM434.54 474.09s-.07 0-.11-.02c-.15-.06-.22-.23-.16-.38l3.64-8.97c.06-.15.23-.22.38-.16.15.06.22.23.16.38l-3.64 8.97c-.05.11-.16.18-.27.18zM454.74 494.65c-.11 0-.22-.07-.27-.18-.06-.15 0-.32.16-.39l8.92-3.77c.15-.06.32 0 .39.16.06.15 0 .32-.16.39l-8.92 3.77s-.08.02-.11.02zM463.46 527.13s-.07 0-.11-.02l-8.97-3.64c-.15-.06-.22-.23-.16-.38.06-.15.23-.22.38-.16l8.97 3.64c.15.06.22.23.16.38-.05.11-.16.18-.27.18zM437.7 552.61c-.11 0-.22-.07-.27-.18l-3.77-8.92c-.06-.15 0-.32.16-.39.15-.06.32 0 .39.16l3.77 8.92c.06.15 0 .32-.16.39-.04.02-.08.02-.11.02zM401.46 552.41s-.07 0-.11-.02c-.15-.06-.22-.23-.16-.38l1.46-3.6c.06-.15.23-.22.38-.16.15.06.22.23.16.38l-1.46 3.6c-.05.11-.16.18-.27.18z"/><path d="M402.92 548.81s-.07 0-.11-.02c-.15-.06-.22-.23-.16-.38l2.18-5.37c.06-.15.23-.22.38-.16.15.06.22.23.16.38l-2.18 5.37c-.05.11-.16.18-.27.18zM375.97 526.65c-.11 0-.22-.07-.27-.18-.06-.15 0-.32.16-.39l4.46-1.88c.15-.06.32 0 .39.16.06.15 0 .32-.16.39l-4.46 1.88s-.08.02-.11.02z"/><path d="M380.43 524.76c-.11 0-.22-.07-.27-.18-.06-.15 0-.32.16-.39l4.46-1.88c.15-.06.32 0 .39.16.06.15 0 .32-.16.39l-4.46 1.88s-.08.02-.11.02zM385.14 494.05s-.07 0-.11-.02l-7.05-2.86c-.15-.06-.22-.23-.16-.38.06-.15.23-.22.38-.16l7.05 2.86c.15.06.22.23.16.38-.05.11-.16.18-.27.18zM419.89 471.1c-.16 0-.29-.13-.3-.29l-.05-3.94c0-.16.13-.3.29-.3h0c.16 0 .29.13.3.29l.05 3.94c0 .16-.13.3-.29.3h0zM446.5 482.18c-.07 0-.15-.03-.21-.08-.12-.11-.12-.3 0-.42l5.74-5.9c.11-.12.3-.12.42 0 .12.11.12.3 0 .42l-5.74 5.9c-.06.06-.13.09-.21.09zM457.49 508.83c-.16 0-.29-.13-.3-.29 0-.16.13-.3.29-.3l4.84-.07h0c.16 0 .29.13.3.29 0 .16-.13.3-.29.3l-4.84.07h0zM449.22 538.18c-.07 0-.15-.03-.21-.08l-2.81-2.73c-.12-.11-.12-.3 0-.42.11-.12.3-.12.42 0l2.81 2.73c.12.11.12.3 0 .42-.06.06-.13.09-.21.09zM419.85 553.34c-.16 0-.29-.13-.3-.29l-.1-6.9c0-.16.13-.3.29-.3h0c.16 0 .29.13.3.29l.1 6.9c0 .16-.13.3-.29.3h0zM391.06 537.49c-.07 0-.15-.03-.21-.08-.12-.11-.12-.3 0-.42l2.07-2.13c.11-.12.3-.12.42 0 .12.11.12.3 0 .42l-2.07 2.13c-.06.06-.13.09-.21.09zM376.31 508.78c-.16 0-.29-.13-.3-.29 0-.16.13-.3.29-.3l5.84-.08h0c.16 0 .29.13.3.29 0 .16-.13.3-.29.3l-5.84.08h0zM393.23 482.08c-.07 0-.15-.03-.21-.08l-3.82-3.72c-.12-.11-.12-.3 0-.42.11-.12.3-.12.42 0l3.82 3.72c.12.11.12.3 0 .42-.06.06-.13.09-.21.09zM405.71 473.84c-.11 0-.22-.07-.27-.18l-3.77-8.92c-.06-.15 0-.32.16-.39.15-.06.32 0 .39.16l3.77 8.92c.06.15 0 .32-.16.39-.04.02-.08.02-.11.02zM434.54 474.09s-.07 0-.11-.02c-.15-.06-.22-.23-.16-.38l3.64-8.97c.06-.15.23-.22.38-.16.15.06.22.23.16.38l-3.64 8.97c-.05.11-.16.18-.27.18zM454.74 494.65c-.11 0-.22-.07-.27-.18-.06-.15 0-.32.16-.39l8.92-3.77c.15-.06.32 0 .39.16.06.15 0 .32-.16.39l-8.92 3.77s-.08.02-.11.02zM463.46 527.13s-.07 0-.11-.02l-8.97-3.64c-.15-.06-.22-.23-.16-.38.06-.15.23-.22.38-.16l8.97 3.64c.15.06.22.23.16.38-.05.11-.16.18-.27.18zM437.7 552.61c-.11 0-.22-.07-.27-.18l-3.77-8.92c-.06-.15 0-.32.16-.39.15-.06.32 0 .39.16l3.77 8.92c.06.15 0 .32-.16.39-.04.02-.08.02-.11.02zM401.46 552.41s-.07 0-.11-.02c-.15-.06-.22-.23-.16-.38l3.64-8.97c.06-.15.23-.22.38-.16.15.06.22.23.16.38l-3.64 8.97c-.05.11-.16.18-.27.18z"/><path d="M375.97 526.65c-.11 0-.22-.07-.27-.18-.06-.15 0-.32.16-.39l8.92-3.77c.15-.06.32 0 .39.16.06.15 0 .32-.16.39l-8.92 3.77s-.08.02-.11.02zM385.14 494.05s-.07 0-.11-.02l-8.97-3.64c-.15-.06-.22-.23-.16-.38.06-.15.23-.22.38-.16l8.97 3.64c.15.06.22.23.16.38-.05.11-.16.18-.27.18z"/><path fill="#f98000" d="m428.05,527.97c-1.61.68-3.42.7-5.04.04l-19.44-7.9c-7.67-3.1-11.36-11.83-8.26-19.5,2.79-6.88,10.19-10.68,17.41-8.93,4.21-7.12,13.39-9.48,20.51-5.27,6.39,3.78,9.05,11.66,6.25,18.54l-7.89,19.44c-.66,1.62-1.93,2.91-3.54,3.58Z"/><path fill="#fe9526" d="m736.5,144.48c-16.76,9.45-22.69,30.71-13.23,47.47,9.45,16.76,30.71,22.69,47.47,13.23,16.76-9.45,22.69-30.71,13.23-47.47-9.45-16.76-30.71-22.69-47.47-13.23Zm32.69,29.58c3.77,6.71,1.41,15.2-5.29,18.99-6.71,3.77-15.2,1.41-18.99-5.29-.95-1.67-.35-3.8,1.32-4.75h0s18.21-10.27,18.21-10.27c1.67-.95,3.8-.35,4.75,1.32h0Z"/><circle cx="759.31" cy="163.63" r="3.48" fill="#11125b"/><circle cx="741.09" cy="173.9" r="3.48" fill="#11125b"/><path fill="#11125b" d="m763.9,193.05c-6.71,3.77-15.2,1.41-18.99-5.29-.95-1.67-.35-3.8,1.32-4.75h0s18.21-10.27,18.21-10.27c1.67-.95,3.8-.35,4.75,1.32h0c3.77,6.71,1.41,15.21-5.29,18.99Z"/></g><g transform="translate(666.389 166.068) scale(.73578)"><path fill="#b8b9d8" d="m257.56,507.22h234.67s17.98,5.84,19.33,97.06c.38,25.8,9.21,87.55,12.14,120.87,7.43,84.5,19.78,174.34,19.78,174.34h-104.75l-49.45-172.55-19.33-150.08,11.69,150.98,18.88,183.78h-102.05l-27.87-182.43-13.04-221.97Z"/><path d="m423.9,273.11c0,11.04-11.13,24.71-34.84,24.71s-36.19-13.67-36.19-24.71,13.6-10.78,37.31-10.78,33.72-.26,33.72,10.78Z"/><path fill="#ffcc97" d="m494.99,314.47c-4.46,39.22-9.08,79.83-13.55,119.06,3.45,20.71,7.33,52.98,10.79,73.69h-234.67c13.74-67.1,27.64-135.03,41.39-202.13,1.34-6.56,6.62-11.58,13.16-12.64,0,0,60.54-9.89,60.54-9.89l53.05,5.39,55.82,8.83c.78.12,1.54.3,2.27.53,7.34,2.22,12.11,9.64,11.2,17.16Z"/><polygon fill="#f2f2f2" points="493.86 324.38 492.44 336.95 292.92 334.55 295.49 321.99 493.86 324.38"/><path fill="#8d8e8d" d="m494.88,310.02l-196.45-2.37.53-2.56c.84-4.11,3.22-7.63,6.52-9.94l178.32,2.15c5.85,1.81,10.11,6.79,11.09,12.72Z"/><polygon fill="#f2f2f2" points="487.74 378.24 486.31 390.8 281.9 388.34 284.48 375.78 487.74 378.24"/><polygon fill="#f2f2f2" points="490.8 351.31 489.37 363.88 287.42 361.44 289.98 348.89 490.8 351.31"/><polygon fill="#f2f2f2" points="483.31 444.69 270.89 442.13 273.46 429.57 481.61 432.09 481.45 433.53 483.31 444.69"/><polygon fill="#f2f2f2" points="484.68 405.16 483.25 417.72 276.4 415.23 278.97 402.68 484.68 405.16"/><polygon fill="#f2f2f2" points="492.24 498.23 259.88 495.92 262.45 483.37 490.21 486.11 492.24 498.23"/><polygon fill="#f2f2f2" points="487.81 471.7 265.39 469.02 267.95 456.47 485.71 459.1 487.81 471.7"/><path fill="#11125b" d="M367.71 309.96s-31.64 118.97-25.92 204.56c.66 9.91-6 18.78-15.71 20.9-27.48 5.99-50.75 6.24-68.91-.47-5.03-1.86-7.9-7.15-6.79-12.39l44.45-210.12c2.21-10.46 10.53-18.55 21.06-20.47l39.24-7.16 12.59 25.16zM393.33 309.96l-14.9 209.36c-.48 6.79 4.23 13.48 11.02 13.91 49.73 3.19 12.87-14.78 78.96-41.74 7.02-2.86 31.82 27.11 31.03 19.58l-8.55-81.59 6.84-117.89c.45-7.78-5.14-14.61-12.86-15.7l-59.17-8.4-32.37 22.47z"/><path fill="#141414" d="m416.71,191.78s-4.05-13.8-21.13-12.58c-17.08,1.22-10.34,18.95-10.34,18.95,0,0,20.68,5.85,31.47-6.37Z"/><path fill="#141414" d="m407.72,196.53s-16.18-26.82-36.41-18.67c-20.23,8.15-13.04,32.12-20.68,35.38-7.64,3.26-10.34-.81-10.34-.81,0,0,4.95,18.33,31.47,11,26.52-7.33,35.97-26.89,35.97-26.89Z"/><path fill="#7c5933" d="M371.23 310.18c30.12 6.29 54.4-22.02 54.4-22.02-10.34-6.74-16.63-46.73-16.63-46.73l-6.1-.25-33.01 3.85v.08c.36 13.42-1.78 22.58-4.46 28.74-.12.27-.24.54-.37.8-4.06 8.45-11.81 11.27-11.81 11.27 0 0-12.66 17.87 17.98 24.26zM110.56 321.19s4.05 11.23 31.02 8.09c26.97-3.15 51.7-29.21 41.36-44.48-10.34-15.28-49-44.03-60.69-39.99-11.69 4.04-11.69 76.39-11.69 76.39z"/><path fill="#2a6835" d="m432.89,205.71s-2.7,22.47-9.89,28.31c-7.19,5.84-15.29-25.61-15.29-25.61l25.18-2.7Z"/><path d="m365.05,274.64c23.92,1.8,38.09-30.07,38.09-30.07.09-1.33,0-2.46-.26-3.4l-33.01,3.92c.36,13.42-1.78,22.58-4.46,28.74-.12.27-.24.54-.37.8Z"/><path fill="#7c5933" d="m426.31,226.8c-2.35-3.28-6.16-4.97-10.18-4.95-3.32-17.09-15.56-26.69-30.54-25.21-16.22,1.59-29.49,15.55-27.55,35.36,1.95,19.81,5.53,35.68,21.75,34.08,9.08-.89,20.2-7.07,27.89-15.81,5.23-.4,11.02-2.39,14.49-4.88,6.38-4.57,8.24-12.89,4.15-18.59Z"/><path d="m423.47,237.71c-1.98-3.32-4.99-6.09-8.47-7.79l.51-1.04c3.68,1.8,6.86,4.73,8.95,8.24l-1,.59Z"/><path fill="#fff" d="m420.96,233.51l-1.69,5.24"/><rect width="5.5" height="1.16" x="417.37" y="235.55" transform="rotate(-72.13 420.116 236.132)"/><ellipse cx="386.66" cy="227.65" rx="1.84" ry="2.57" transform="rotate(-5.62 386.76 227.703)"/><ellipse cx="367.53" cy="228.91" rx="1.84" ry="2.57" transform="rotate(-5.62 367.605 228.907)"/><path d="M369.31 242.02l-.52-1.04c2.97-1.48 5.27-4.13 6.32-7.28 1.05-3.15.8-6.65-.69-9.61l1.04-.52c1.62 3.24 1.9 7.06.75 10.5-1.15 3.44-3.66 6.33-6.91 7.95zM377.75 249.99l-.15-1.15c4.67-.63 8.92-4.21 10.32-8.7l1.11.35c-1.56 4.99-6.09 8.81-11.27 9.51z"/><path d="m377.63,266.77c-2.38,0-4.54-.41-6.44-1.22l.45-1.07c2.3.98,5.02,1.32,8.09,1.02,9.02-.89,20.07-7.16,27.51-15.62l.16-.18.24-.02c5.04-.38,10.74-2.3,14.19-4.77,6.11-4.37,7.91-12.35,4.02-17.78-2.15-2.99-5.66-4.71-9.64-4.71-.02,0-.04,0-.07,0h-.48s-.09-.47-.09-.47c-3.2-16.5-14.94-26.22-29.92-24.75l-.11-1.15c15.47-1.52,27.62,8.36,31.08,25.22,4.19.11,7.88,1.99,10.17,5.19,4.27,5.95,2.34,14.66-4.29,19.4-3.55,2.54-9.37,4.53-14.55,4.96-7.73,8.71-18.74,14.91-28.11,15.83-.76.07-1.5.11-2.21.11Z"/><path fill="#2a6835" d="m402.32,212.9s7.19,9.44,5.39,16.63h2.7s2.25-8.54,10.79-8.54-1.8-15.28-1.8-15.28l-17.08,7.19Z"/><path fill="#141414" d="m432,207.84s-9.71.95-14.84,2.82c-6.74,2.46-16.77,7.08-18.43,1.35-2.25-7.74-5.84-7.33-17.08-7.74,0,0,11.69-16.7,28.77-18.32,17.08-1.63,23.83,5.69,23.83,13.84s-2.25,8.05-2.25,8.05Z"/><path fill="#141414" d="m393.33,195.83s-8.54,12.11-20.23,14.55c-11.69,2.44-14.84,14.66-14.84,14.66-4.6,1.1-9.79-31.71,35.07-29.21Z"/><path fill="#fe9526" d="M428.4 288.39c-1.15 2.35-2.6 4.46-4.27 6.35-.3.35-.61.68-.93 1.01-2.78 2.92-6.06 5.27-9.37 7.16-.32.18-.64.36-.96.53-3.93 2.13-7.88 3.63-11.12 4.64-.33.1-.66.2-.98.3-3.88 1.15-6.54 1.57-6.54 1.57-5.53-8.98-3.09-22.21-1.66-27.85.4-1.59 1.7-2.79 3.32-3.09.88-.17 1.74-.36 2.58-.58.33-.09.66-.18.98-.27 4.22-1.23 7.98-3.08 11.1-4.99.32-.2.65-.4.96-.6 5.52-3.55 8.81-7.1 8.81-7.1.19-.03.39-.03.57-.01.36.03.7.15 1.03.34 5 2.89 6.49 22.59 6.49 22.59zM370.29 284.05c-4.86 22.5-2.58 25.91-2.58 25.91 0 0-4.67-.78-9.48-3.59l-.94-.58c-2.59-1.66-5.15-3.95-6.95-7.05h0c-.28-.5-.55-1.01-.8-1.55h0c-1.32-2.88-2.01-6.37-1.62-10.6.82-8.99 3.07-14.33 5.34-17.49h0c.4-.56.8-1.05 1.2-1.48 2.49-2.71 4.69-3.04 4.69-3.04-2.99 3.39-.85 6.34 2.46 8.56.3.21.61.4.93.59 1.11.67 2.3 1.26 3.44 1.77 3.28 1.46 5.05 5.05 4.29 8.55z"/><path fill="#7c5933" d="m161.81,315.79s-7.64-9.66,3.15-51.22c0,0-10.3-32.06,2.25-35.87,7.64-2.32,10.34,2.22,11.24,13.85.9,11.64,4.05,15.28,13.94,31.9,5.16,8.67-.45,49.97-.45,49.97,0,0-27.87,10.14-30.12-8.63Z"/><path fill="#595bd4" d="m169.41,293.77l-27-98.36c-.08-.3-.19-.58-.31-.85l2.84-1.18-6.35-1.78h0c-.62-.09-1.26-.04-1.89.19l-44.37,16.37c-2.37.87-3.65,3.91-2.86,6.78l27,98.36c.64,2.32,2.42,3.82,4.34,3.85l4.22-.03-.12-1.21,41.65-15.36c2.37-.87,3.65-3.91,2.86-6.78Z"/><path fill="#b8b9d8" d="m171.49,300.71l-44.38,16.26c-2.37.87-4.93-.73-5.71-3.57l-26.89-97.34c-.78-2.84.5-5.85,2.87-6.72l44.38-16.26c2.37-.87,4.93.73,5.71,3.57l26.89,97.34c.78,2.84-.5,5.85-2.87,6.72Z"/><path fill="#141414" d="m167.66,298.31l-38.62,14.15c-2.37.87-4.93-.73-5.71-3.57l-24.98-90.43c-.78-2.84.5-5.85,2.87-6.72l38.62-14.15c2.37-.87,4.93.73,5.71,3.57l24.98,90.43c.78,2.84-.5,5.85-2.87,6.72Z"/><path fill="#b8b9d8" d="m107.03,208.42l3.69,2.33c.52.33,1.17.39,1.76.18l19.52-7.07c.77-.28,1.31-.99,1.35-1.79l.16-3.49-26.47,9.84Z"/><path fill="#7c5933" d="m97.09,270.14s-19.98-30.42-5.17-34.57,12.06,30.03,12.06,30.03l-6.88,4.54Z"/><path fill="#7c5933" d="m90.12,279.04s-6.95-15.57,4.78-20.34c8.78-3.56,22.16,6.32,28.35,11.52,3.1,2.61,5.3,6.17,6.02,10.16.98,5.39-.54,11.8-13.49,11.49-22.19-.53-25.65-12.83-25.65-12.83Z"/><path fill="#7c5933" d="m109.66,311.39c-6.53,1.09-12.87-2.77-14.85-9.1-2.33-7.47-4.18-17.1.62-19.71,8.15-4.41,31.8,1.84,31.56,13.15-.18,8.38-7.33,13.98-17.33,15.65Z"/><path fill="#fe9526" d="m462.44,564.45c-17.89-7.78-29.43-19.93-37.53-34.45-2.14-3.84-1.61-8.62,1.36-11.87l21.05-22.96,47.79,43.76-21.13,23.05c-2.93,3.19-7.57,4.19-11.54,2.47Z"/><path fill="#11125b" d="m583.17,449.97l-1.11.93c-10.25,7.34-32.28,8.24-49.01-4.39-36.05-24.38-59.67-56.74-77.55-92.76-12.32-14.74-10.35-36.67,4.39-48.98l1.11-.93c14.75-12.31,36.69-10.35,49.01,4.39l77.55,92.76c12.32,14.74,10.35,36.67-4.39,48.98Z"/><path fill="#11125b" d="m583.89,396.86l1.05.99c13.96,13.2,13.39,31.63,6.2,51.4-21.4,36.21-55.27,65.26-93.05,90.91-10.35,6.59-18.39,9.49-27.66,4.8-13.29-6.72-21.68-15.54-27.42-25.5-5.19-9-2.92-17.19,3.28-27.87,22.33-36.73,50.73-68.7,88.42-93.39,17.77-10.07,35.23-14.55,49.18-1.35Z"/><polygon fill="#fe9526" points="540.79 956.56 453.13 956.56 449.08 903.08 536.74 903.08 540.79 956.56"/><polygon fill="#fe9526" points="393.78 956.56 306.12 956.56 302.07 903.08 389.74 903.08 393.78 956.56"/><rect width="80.83" height="236.78" x="230.1" y="275.67" fill="#11125b" rx="40.41" ry="40.41" transform="rotate(38.4 270.52 394.084)"/><path fill="#fe9526" d="m143.63,310.83h39.45c8.74,0,15.84,7.1,15.84,15.84v25.51h-71.13v-25.51c0-8.74,7.1-15.84,15.84-15.84Z" transform="rotate(-29.99 163.329 331.475)"/><path fill="#11125b" d="m240.48,489.7l.12.05c-19.1,10.84-43.27-2.35-51.32-9.85-29.72-42.77-45.9-64.78-54.9-103.88-1.8-24.26-6.51-22.86,12.59-33.7l27.87-16.18c19.1-10.84,29.22-4.04,40.91,15.28,31.47,48.98,39.69,52.99,50.63,94.73,3.04,22.12-6.8,42.72-25.9,53.55Z"/><path fill="#7c5933" d="m105.19,308.27s-.39,19,17.06,17.29c17.45-1.71,19.89-18.21,15.29-23.63-4.19-4.94-18.11-4.99-32.35,6.34Z"/><rect width="130.82" height="51.22" x="423.45" y="870.28" fill="#11125b" rx="11.13" ry="11.13"/><rect width="130.82" height="51.22" x="277.35" y="870.28" fill="#11125b" rx="12.97" ry="12.97"/><path fill="#f2f2f2" d="m413.56,1019.01h-234.67c0-3.42.14-6.75.43-9.98.03-.39.07-.77.11-1.16,2.29-23.19,12.01-40.59,29.14-41.7,8.57-.55,22.3-3.91,36.09-8.92.64-.23,1.28-.47,1.92-.71,7.37-2.76,14.7-5.99,21.2-9.49.45-.24.88-.48,1.32-.73h0c8.21-4.56,14.96-9.57,18.58-14.66,12.14-17.05-2.25-15.77,35.52-19.6,37.76-3.83,42.26,28.12,42.26,28.12,7.28-10.57,16.64-15.35,24.11-17.5,5.75-1.65,11.43,2.75,11.34,8.74-.1,6.49.87,15.97,5.01,28.36,5.47,16.36,7.07,36.05,7.51,48.09.01.4.03.78.04,1.16.2,6.11.09,9.98.09,9.98Z"/><path d="M292.35 973.68l-.52 1.03c-15.02-7.55-30.86-13.41-47.17-17.46.64-.23 1.28-.47 1.92-.71 15.82 4.05 31.18 9.8 45.77 17.14zM302.5 967.68l-.8.84c-9.79-9.26-21.39-16.59-33.93-21.48.45-.24.88-.48 1.32-.73h0c12.34 4.95 23.74 12.22 33.4 21.36zM413.47 1009.03h-234.15c.03-.39.07-.77.11-1.16h234.01c.01.4.03.78.04 1.16zM366.45 965.07l-1.09-.22c1.63-7.96 1.34-16.3-.84-24.12l1.08-.3c2.22 8 2.52 16.52.85 24.65z"/><path fill="#f2f2f2" d="m570.46,1028h-211.3c-.04-2.97-.09-5.68-.11-8.18,0-.39,0-.78,0-1.16-.15-24.77,3.01-27.59,48.22-48.17,4.78-2.18,9.04-4.39,12.83-6.59.44-.26.88-.52,1.3-.77h0c3.25-1.95,6.14-3.9,8.7-5.84.33-.25.65-.49.97-.74,23.7-18.39,18.67-35.04,18.67-35.04,0,0,8.32-2.25,29.45-4.04,21.13-1.8,22.93,19.77,22.93,19.77,27.42-21.57,36.86-15.73,36.86-15.73,0,0-3.15,11.23,11.24,35.95,10.35,17.78,16.28,46.49,18.79,61.2.07.4.13.78.19,1.16.85,5.06,1.25,8.18,1.25,8.18Z"/><path d="M446.41 977.96l-.77.86c-7.42-6.63-16.14-11.72-25.54-14.93.44-.26.88-.52 1.3-.77h0c9.19 3.27 17.72 8.32 25 14.84zM456.11 977.11l-.81.83c-7.81-7.54-16.26-14.46-25.18-20.66.33-.25.65-.49.97-.74 8.87 6.17 17.25 13.07 25.03 20.56zM569.22 1019.82h-210.16c0-.39 0-.78 0-1.16h209.98c.07.4.13.78.19 1.16zM501.4 963.28l-1.1-.2c1.5-8.46 1.93-17.1 1.25-25.67l1.11-.09c.68 8.67.25 17.4-1.27 25.95z"/><path d="m358.49,1019.82v-1.16c-.09-13.22.9-19.76,7.25-26.06,6.43-6.39,18.07-12.06,41.29-22.63l.46,1.02c-45.36,20.65-48.05,23.32-47.9,47.66v1.16s-1.11.01-1.11.01Z"/><rect width="149.73" height="1.16" x="200.68" y="402.62" transform="rotate(-78.05 275.57 403.21)"/><path d="M285.29 353.77c-1.68-7.56-2.1-15.3-1.24-23l1.15.13c-.85 7.57-.44 15.18 1.22 22.62l-1.13.25zM502.84 422.48c-12.26-12.43-22.43-25.1-31.1-38.74l-.06-.13c-.04-.11-3.54-11.08-5.21-24.77-2.8-22.97 1.63-35.83 5.84-42.58 4.98-7.97 12.7-12.76 22.96-14.24l.17 1.15c-9.91 1.43-17.36 6.04-22.15 13.71-14.02 22.45-1.15 64.34-.53 66.31 8.62 13.54 18.72 26.13 30.9 38.48l-.83.81z"/><path d="m446.65,492.03l-.98-.62c23.16-36.86,47.21-63.75,75.67-84.63l.69.93c-28.34,20.8-52.3,47.59-75.38,84.32Z"/><path d="m503.83,421.79l-1.14-.23c1.27-6.19,5.36-11.68,10.93-14.67l.55,1.02c-5.27,2.84-9.13,8.03-10.34,13.89Z"/><rect width="1.16" height="32.62" x="243.89" y="368.54" transform="rotate(-32.85 244.513 384.888)"/><path d="M263 397.45c-5.92-10.49-15.1-19.23-25.87-24.63l.52-1.04c10.97 5.5 20.33 14.41 26.36 25.1l-1.01.57zM455.71 354.74h-52.03l1.12-10.01h52.03l-1.12 10.01zm-50.91-1h50.02l.89-8.01h-50.02l-.89 8.01zM342.02 352.65h-44.28l1.5-9.23h44.28l-1.5 9.23zm-43.19-.92h42.41l1.2-7.38h-42.41l-1.2 7.38z"/><path d="m336,389.67h-44.28l6.17-37.94h44.28l-6.17,37.94Zm-43.19-.92h42.41l5.87-36.09h-42.41l-5.87,36.09Z"/><path fill="#b8b9d8" d="m434.04,509.66s3.35,46.09,60,55.52c0,0-8.54,21.12-68.33,17.97-59.79-3.15-5.35-58.92,8.34-73.5Z"/><path d="M484.58 561.9c-13.16-1.62-25.47-7.77-34.66-17.32-9.19-9.55-14.86-22.09-15.96-35.3l.92-.08c1.09 13 6.66 25.33 15.71 34.73 9.04 9.4 21.16 15.46 34.11 17.05l-.11.91zM401.09 564.81l-.9-.19c4.55-21.38 16.36-40.82 33.23-54.73l.59.71c-16.71 13.78-28.4 33.03-32.91 54.21z"/><rect width=".92" height="320.53" x="499.19" y="550.5" transform="rotate(-5.55 499.988 711.206)"/><polygon points="375.88 572.45 356.54 570.1 342.31 509.35 343.21 509.14 357.29 569.26 374.82 571.4 367.25 507.27 368.17 507.17 375.88 572.45"/><path d="M91.26 261.67l-.66-.64c.05-.05 5.17-5.26 12.28-3.07 2.91.9 5.28 1.79 7.47 2.81l-.39.84c-2.15-1-4.48-1.88-7.35-2.76-6.56-2.02-11.29 2.78-11.34 2.83zM115.12 292.74c-12.13 0-21.67-7.96-21.79-8.06l.6-.7c.15.13 15.04 12.54 31.03 5.89l.35.85c-3.5 1.45-6.94 2.03-10.19 2.03zM106.43 311.88c-.79 0-1.26-.04-1.29-.04l.08-.92c.16.01 16.01 1.3 20.92-12.23l.87.31c-4.31 11.87-16.57 12.88-20.59 12.88zM121.59 326.43c-5.51 0-9.6-2.46-9.67-2.51l.49-.78c.51.31 12.49 7.5 22.94-4.35l.69.61c-4.84 5.49-10.08 7.03-14.44 7.03z"/></g><g transform="translate(40.539 293.187) scale(.76294)"><path d="m73.74,337.58c30.86-2.02,59.45,15.95,87.37,39.99l286.63,226.41-157.09,56.13-204.43-88.16c-23.98-91.25-47.65-182.3-12.48-234.37Z"/><path fill="#fe9526" d="m306.14,249.85c-1.91-11.09-25.63-9.13-20.66-27.09,4.97-17.97-9.9-13.47-6.46-24.94,3.44-11.47-5.45-8.98-4.3-18.54,1.15-9.56.38-14.53-12.62-19.88-13.01-5.35-6.12-14.91-18.75-14.91-10.9,0-12.39,11.68-12.59,14.87-4.93-1.91-14.5-4.14-18.78.42-5.74,6.12-3.83,12.23-10.71,14.91-6.89,2.68-14.92-2.68-18.36,16.44-3.44,19.11-13.54,15.16-18.8,26.04-6.03,12.47,2.3,21.29-3.01,30.53-13.34,23.22-3.59,20.79-18.51,35.69-14.92,14.91-10.33,30.96-10.33,30.96l115.69-53.62c15.76,5.83,39.78,6.73,47.05,5.69,10.71-1.53,13.05-5.49,11.14-16.58Z"/><rect width="69.29" height="172.45" x="361.23" y="260.17" fill="#f98000" rx="34.32" ry="34.32" transform="rotate(3.91 396.208 346.795)"/><path fill="#f98000" d="m118.93,307.91l77.04-49.45,92.96,4.73,34.68,3.42,77.65,200.42-266.84,70.96s-19.37-212.44-15.49-230.07Z"/><path fill="#ffcc96" d="m381.89,264.9s50.35-92.03,63.7-92.03,7.75,14.19.43,30.1c-7.32,15.91-39.52,73.38-39.52,73.38,0,0-12.56,11.77-19.02,6.18s-5.59-17.63-5.59-17.63Z"/><path fill="#ffcc96" d="m434.83,217.6s23.24-3.87,16.35,13.33c0,0,15.49,5.16,9.04,15.48,0,0,19.37,1.72,3.01,20.21,0,0-12.48,44.72-49.92,47.3-37.44,2.58-40.03-36.98-31.42-49.02,8.61-12.04,52.94-47.3,52.94-47.3Z"/><path fill="#ffcc96" d="m379.03,277.91s-4.47-18.91,4.54-30.01c5.78-7.12,13.94-20.5,19.05-29.18,2.72-4.62,9.49-4.49,11.98.26,2.47,4.72,3.79,11.23.05,19.08-8.04,16.86,3.31,33.4-4.39,41.62s-25.97,15.38-31.23-1.76Z"/><path d="M435.17 250.61c-1.58 0-3.21-.38-4.87-1.13-.27-.12-.39-.44-.27-.71.12-.27.44-.39.71-.27 2.91 1.32 5.71 1.37 8.3.14 7.81-3.71 11.58-17.71 11.62-17.85.08-.29.37-.46.65-.38.29.08.46.37.38.65-.04.15-.98 3.68-2.94 7.75-2.66 5.51-5.77 9.14-9.25 10.8-1.4.67-2.85 1-4.34 1zM446.23 259.2c-1.98 0-3.89-.68-5.7-2.04-.24-.18-.28-.51-.11-.75.18-.24.51-.28.75-.11 2.13 1.59 4.4 2.14 6.75 1.64 6.97-1.51 12.63-11.68 12.68-11.79.14-.26.47-.35.73-.21.26.14.35.47.21.73-.06.11-1.49 2.7-3.84 5.52-3.19 3.83-6.41 6.12-9.55 6.8-.65.14-1.29.21-1.93.21zM454.63 268.83c-3.71 0-6.24-1.26-7.38-3.7-.13-.27 0-.59.26-.71.27-.13.59 0 .71.26 2.77 5.93 14.7 1.49 14.82 1.45.28-.1.59.03.69.31.11.28-.03.59-.31.69-.13.05-3.22 1.21-6.75 1.59-.72.08-1.4.12-2.04.12zM428.01 237.56c-.09 0-.18-.02-.27-.07-.26-.15-.35-.47-.2-.73 7.72-13.51 15.14-28.41 15.21-28.56.13-.26.45-.37.72-.24.27.13.37.45.24.72-.07.15-7.5 15.08-15.24 28.62-.1.17-.28.27-.47.27zM410.26 280.21c-.13 0-.26-.05-.37-.14-.22-.2-.23-.54-.03-.76 3.54-3.78 2.83-9.6 2.02-16.34-.92-7.62-1.96-16.27 2.27-25.15 3.07-6.43 3.06-12.69-.04-18.6-.81-1.55-2.17-2.66-3.84-3.12-.28-.08-.45-.38-.37-.66s.38-.45.66-.37c1.95.55 3.55 1.84 4.5 3.66 3.26 6.22 3.28 12.8.06 19.55-4.1 8.6-3.08 17.08-2.18 24.56.84 7.01 1.57 13.06-2.3 17.2-.11.11-.25.17-.39.17z"/><ellipse cx="238.3" cy="415.57" rx="10.49" ry="47.49" transform="rotate(-13.32 238.371 415.655)"/><path fill="#ffcc96" d="m253.21,310.06c-53.37,10.32-76.63-27.43-83.49-33.11-1.99-1.65,25.37-17.02,26.58-19.3,4.47-8.38,11.22-29.81,7.42-40.05l8.32,2.37,39.88,11.39c.75,4.24,1.95,11.97,4.08,17.87,1.54,4.27,3.56,7.58,6.24,7.93,3.88.5,24.23,2.45,25.82,6.02,4.02,9-8.4,41.76-34.86,46.87Z"/><path d="m256,249.23c-1.33,1.51-3.6,2.5-7.07,2.78-24.2,1.98-35.13-26.86-36.9-32.04l39.88,11.39c.75,4.24,1.95,11.97,4.08,17.87Z"/><path fill="#ffcc96" d="m199.15,200.68c2.25-3.14,5.89-4.75,9.75-4.74,3.18-16.35,14.9-25.54,29.24-24.13,15.53,1.52,28.24,14.88,26.37,33.84-1.86,18.96-5.29,34.15-20.82,32.62-8.69-.85-19.34-6.77-26.7-15.13-5-.38-10.55-2.29-13.87-4.67-6.11-4.37-7.89-12.34-3.98-17.79Z"/><path d="m201.86,211.12l-.95-.57c2.01-3.36,5.05-6.16,8.57-7.89l.49,1c-3.33,1.63-6.21,4.28-8.11,7.46Z"/><path fill="#fff" d="m204.26,207.1c.54,1.67,1.08,3.34,1.62,5.01"/><rect width="1.11" height="5.27" x="204.52" y="206.98" transform="rotate(-17.88 205.054 209.605)"/><ellipse cx="237.11" cy="201.5" rx="2.46" ry="1.77" transform="rotate(-84.37 237.121 201.5)"/><ellipse cx="255.42" cy="202.7" rx="2.46" ry="1.77" transform="rotate(-84.37 255.435 202.703)"/><path d="M253.72 215.25c-3.1-1.55-5.51-4.32-6.61-7.61-1.1-3.29-.83-6.95.72-10.05l.99.5c-1.42 2.84-1.66 6.19-.66 9.2 1 3.01 3.21 5.55 6.05 6.97l-.5.99zM245.63 222.88c-4.96-.67-9.3-4.32-10.79-9.1l1.06-.33c1.34 4.31 5.41 7.73 9.88 8.33l-.15 1.1z"/><path d="m245.75,238.93c-.69,0-1.39-.04-2.12-.11-8.97-.88-19.51-6.82-26.91-15.15-4.95-.42-10.52-2.31-13.92-4.75-3.06-2.19-5.18-5.33-5.96-8.82-.79-3.52-.13-6.98,1.86-9.75,2.19-3.06,5.72-4.85,9.74-4.96,3.31-16.13,14.94-25.59,29.75-24.13l-.11,1.1c-14.33-1.41-25.57,7.89-28.64,23.69l-.09.45h-.46s-.04,0-.06,0c-3.81,0-7.18,1.64-9.23,4.5-1.8,2.51-2.39,5.66-1.68,8.86.72,3.23,2.68,6.13,5.53,8.16,3.3,2.36,8.76,4.2,13.59,4.56l.23.02.15.17c7.12,8.09,17.7,14.1,26.33,14.95,2.94.29,5.54-.04,7.75-.97l.43,1.02c-1.82.77-3.89,1.16-6.17,1.16Z"/><path fill="#ffcc96" d="m234.47,370.91l-105.54,68.83c-55.13,35.34-28.59,116.6,35.89,75.11l101.29-81.36c44.76-31.82-3.14-84.86-31.65-62.57Z"/><path d="m433.38,347.4l-127.95,50.64c-6.72,2.66-13.57-1.12-15.3-8.43l-21.36-90.19c-1.73-7.31,2.31-15.4,9.03-18.06l127.95-50.64c6.72-2.66,13.57,1.12,15.3,8.43l21.36,90.19c1.73,7.31-2.31,15.4-9.03,18.06Z"/><path fill="#f2f2f2" d="m435.28,347.08l-128.22,50.74c-6.23,2.47-12.58-1.03-14.19-7.82l-21.52-90.88c-1.61-6.78,2.14-14.28,8.37-16.75l128.22-50.74c6.23-2.47,12.58,1.03,14.19,7.82l21.52,90.88c1.61,6.78-2.14,14.28-8.37,16.75Z"/><path fill="#b8b9d8" d="m393.37,260.63l-1.67-7.07c-.45-1.89.6-3.98,2.34-4.67l13.26-5.25c1.74-.69,3.51.29,3.96,2.18l1.67,7.07c.45,1.89-.6,3.98-2.34,4.67l-13.26,5.25c-1.74.69-3.51-.29-3.96-2.18Z"/><ellipse cx="406.07" cy="251.73" rx="4.2" ry="3.62" transform="rotate(-70.08 406.035 251.737)"/><ellipse cx="397.42" cy="255.16" fill="#fff" rx="2.88" ry="2.47" transform="rotate(-70.08 397.39 255.162)"/><ellipse cx="401.18" cy="253.67" rx=".66" ry=".57" transform="rotate(-70.08 401.148 253.67)"/><rect width=".97" height="82.88" x="433.19" y="249.38" fill="#1f1f21" transform="rotate(-13.32 433.726 290.846)"/><path fill="#ffcc96" d="M218.52 381.31l33.4-30.4 38.73-3.01 22.7 60.09s-44.22 25.34-61.86 37.24c0 0-26.69-.14-38.31-20.78-11.62-20.64 5.34-43.13 5.34-43.13zM663.79 794.28c-28.41 24.51-208.73 10.75-208.73 10.75l14.6-35.02 24.13-57.87s8.61-21.5 42.18-21.5 38.73 8.6 38.73 8.6c0 0-1.59 43.58 37.87 51.26 1.65.32 3.37.58 5.16.77 30.89 3.26 74.46 18.49 46.05 43z"/><path fill="#ffcc96" d="m289.43,347.99l25.75-18.59s23.24-20.21,27.54-17.63,7.32,12.47-2.15,23.65c-9.47,11.18-18.94,18.49-18.94,18.49l-24.96,17.2s-7.75.43-11.19-8.6c-3.44-9.03,3.95-14.53,3.95-14.53Z"/><path fill="#ffcc96" d="m303.13,388.75s20.23-14.19,22.38-17.63c2.15-3.44,19.8-24.94,15.06-35.69s-21.09,7.74-31.42,21.07c-10.33,13.33-20.35,11.29-20.35,11.29,0,0-7.77,10.07-1.17,18.38,6.59,8.31,15.49,2.58,15.49,2.58Z"/><path fill="#ffcc96" d="m304.42,400.79s28.41-20.21,30.56-26.66c2.15-6.45,11-25.62,4.3-30.1-6.7-4.48-18.94,21.5-18.94,21.5l-27.84,20.36s-4.6,6.47,0,12.19c4.6,5.72,11.92,2.71,11.92,2.71Z"/><path fill="#ffcc96" d="m308.73,410.69s18.08-10.32,21.52-14.19c2.23-2.51,7.32-21.5,2.58-24.08s-12.39.65-15.66,7.64c-3.27,6.98-20.49,13.86-20.49,13.86,0,0-4.73,7.56,0,12.81,4.73,5.25,12.05,3.96,12.05,3.96Z"/><path fill="#7c5933" d="m663.79,794.28c-28.41,24.51-208.73,10.75-208.73,10.75l14.6-35.02c19.5,14.56,96.59,16.63,125.7,10.08,22.33-5.02,20.95-19.81,17.22-29.58,1.65.32,3.37.58,5.16.77,30.89,3.26,74.46,18.49,46.05,43Z"/><path fill="#ffcc96" d="m242.5,361.44s1.67-8.81,11.14-23.86c5.59-8.89-.43-31.39,3.87-33.11,4.3-1.72,13.9-4.14,17.22,16.77,3.31,20.91,7.61,34.3,7.61,34.3,0,0-9.33,19.03-23.53,15.59-14.2-3.44-16.3-9.68-16.3-9.68Z"/><path d="M303.13 367.36c-.2 0-.4-.12-.49-.31-.12-.27 0-.59.26-.71 22-10.14 40.57-36 40.75-36.26.17-.24.51-.3.75-.13.24.17.3.51.13.75-.19.26-18.92 26.35-41.17 36.61-.07.03-.15.05-.22.05zM313.47 383.29l-.58-.9s4.21-2.78 12.23-11.63c8.02-8.85 14.12-24.54 14.18-24.69l1 .39c-.06.16-6.23 16.03-14.38 25.03-8.13 8.98-12.26 11.7-12.44 11.81zM317.98 394.83l-.44-.98c7.49-3.33 15.34-17.23 15.42-17.37l.94.52s-2.03 3.62-4.97 7.57c-3.97 5.34-7.66 8.79-10.95 10.26z"/><path fill="#53d86a" d="m548.66,497.58c2.67,22.82-9.92,44.7-30.99,53.88-98.75,43.02-157.86,68.44-258.64,77.64-57.9,6.5-118.25-23.86-123.94-84.61l-2.38-25.43c93.65-48.42,201.44-68.59,363.37-84.01,22.33-2.13,43,11.99,49.2,33.53l3.39,29Z"/><rect width="116.09" height="366.88" x="401.53" y="446.26" fill="#ffcc96" rx="58.03" ry="58.03" transform="rotate(12.61 459.671 629.838)"/><path fill="#b8b9d8" d="m328.06,682.9l10.6,35.03,31.02,102.54c.92,3.04,3.75,5.1,6.93,5.04l5.62-.1c4.68-.09,8-4.59,6.69-9.08l-30.27-103.84-10.3-35.34-20.29,5.75Z"/><polygon points="340.97 725.47 360.33 718.16 348.34 677.15 328.06 682.9 340.97 725.47"/><path fill="#ffcc96" d="m591.03,828.25h-211.01c-14.41,0-25.03-13.46-21.67-27.45l4.17-17.41,18.08-66.09c5.86-25.77,24.53-44.29,52.08-43,27.54,1.29,66.39,12.01,62.41,49.02-2.53,23.49,11.05,30.58,42.01,39.91,5.88,1.77,12.39,3.62,19.53,5.68,27.51,7.93,42.02,19.64,49.58,30.57,8.42,12.16-.38,28.77-15.18,28.77Z"/><rect width="109.11" height="326.34" x="449.78" y="435.2" fill="#ffcc96" rx="53.08" ry="53.08" transform="rotate(-8.47 504.015 598.047)"/><path d="m537.26,763.84s-.06,0-.09,0c-19.77-3.41-32.8-9.8-38.72-18.99-4.48-6.96-3.01-12.83-2.95-13.08l21.45-95.03c.06-.28.34-.46.62-.39.28.06.46.34.39.62l-21.46,95.04c-.02.07-1.41,5.74,2.83,12.31,7.18,11.11,24.63,16.19,38,18.5.28.05.47.32.42.6-.04.25-.26.43-.51.43Z"/><path fill="#53d86a" d="m535.59,633.01c-43.61,31.02-95.24,43.02-151.28,44.56-7.67.21-13.56-6.72-12.11-14.24l42.41-219.53,73.56-8.7c33.64-3.98,62.67,23.45,60.59,57.23l-8.13,131.65c-.22,3.62-2.08,6.93-5.03,9.03Z"/><path fill="#53d86a" d="m512.8,439.93s25.75-1.72,40.81,76.98c7.1,37.07,11.8,58.5,14.8,70.79,2.45,10.07-2.27,20.49-11.44,25.34-34.22,18.12-73.94,29.03-117.76,34.59-6.31.8-12.1-3.56-13.05-9.85-4.67-31.06-15.79-117.96,1.78-143.23,21.52-30.96,25.55-57.63,84.86-54.61Z"/><rect width="1.07" height="31.17" x="309.91" y="365" transform="rotate(-28 310.42 380.567)"/><rect width="70.15" height="227.3" x="101.84" y="299.04" fill="#f98000" rx="35.05" ry="35.05" transform="rotate(3.91 136.995 413.13)"/><path fill="#f98000" d="m248.15,461.79c-17.25,13.33-89.08,67.22-118.89,64.58-34-3.01-40.89-46.01-19.37-73.97,19.97-25.94,104.06-75.21,116.07-82.17-4.13,4.5-3.35,24.58,2.14,47.75,5.67,23.93,14.34,42.66,20.05,43.81Z"/><path d="m144.32,422.83c-.17,0-.33-.08-.44-.22-.17-.24-.12-.57.12-.75,23.54-16.88,50.3-33.91,81.82-52.06.26-.15.58-.06.73.2.15.26.06.58-.2.73-31.48,18.14-58.22,35.15-81.73,52.01-.09.07-.2.1-.31.1Z"/><path d="m137.76,418.89c-.16,0-.31-.07-.42-.2-.18-.23-.15-.57.08-.75,9.89-7.92,21.74-13.14,34.27-15.08.29-.05.57.15.61.45.05.29-.16.57-.45.61-12.34,1.91-24.02,7.05-33.76,14.85-.1.08-.22.12-.33.12Z"/><path d="m171.87,403.91s-.03,0-.04,0c-.3-.02-.51-.28-.49-.58l4.3-51.6c.02-.29.28-.51.58-.49.3.02.51.28.49.58l-4.3,51.6c-.02.28-.26.49-.53.49Z"/><circle cx="137.22" cy="318.01" r="3.23" fill="#fe9526"/><circle cx="157.88" cy="353.71" r="3.23" fill="#fe9526"/><circle cx="185.42" cy="318.01" r="3.23" fill="#fe9526"/><circle cx="226.31" cy="330.48" r="3.23" fill="#fe9526"/><circle cx="206.08" cy="357.15" r="3.23" fill="#fe9526"/><circle cx="284.41" cy="446.16" r="3.23" fill="#fe9526"/><circle cx="317.55" cy="418.64" r="3.23" fill="#fe9526"/><circle cx="350.26" cy="435.41" r="3.23" fill="#fe9526"/><circle cx="355.42" cy="391.12" r="3.23" fill="#fe9526"/><circle cx="402.33" cy="412.62" r="3.23" fill="#fe9526"/><circle cx="379.09" cy="387.68" r="3.23" fill="#fe9526"/><circle cx="410.51" cy="369.19" r="3.23" fill="#fe9526"/><circle cx="112.26" cy="380.8" r="3.23" fill="#fe9526"/><circle cx="113.98" cy="435.41" r="3.23" fill="#fe9526"/><circle cx="141.09" cy="465.95" r="3.23" fill="#fe9526"/><circle cx="118.28" cy="503.79" r="3.23" fill="#fe9526"/><circle cx="168.64" cy="502.07" r="3.23" fill="#fe9526"/><circle cx="172.94" cy="425.09" r="3.23" fill="#fe9526"/><circle cx="195.32" cy="462.94" r="3.23" fill="#fe9526"/><circle cx="212.54" cy="399.72" r="3.23" fill="#fe9526"/><circle cx="232.33" cy="456.48" r="3.23" fill="#fe9526"/><circle cx="145.83" cy="401.44" r="3.23" fill="#fe9526"/><path d="M158.78 519.45c-.21 0-.41-.12-.49-.33-.11-.27.01-.59.29-.7 34.65-14.57 78.95-49.24 79.4-49.59.23-.18.57-.14.75.09.18.23.14.57-.09.75-.44.35-44.86 35.12-79.64 49.74-.07.03-.14.04-.21.04zM391.79 442.61c-.21 0-.42-.13-.5-.34l-25.39-65.37c-.11-.28.03-.59.31-.69.27-.11.59.03.69.31l25.39 65.37c.11.28-.03.59-.31.69-.06.02-.13.04-.19.04z"/><path fill="#7c5933" d="m591.03,828.25h-211.01c-14.41,0-25.03-13.46-21.67-27.45l4.17-17.41c20.11,27.01,150.59,22.44,172.58,10.46,13.88-7.56,8.67-20.89,1.99-30.62,5.88,1.77,12.39,3.62,19.53,5.68,27.51,7.93,42.02,19.64,49.58,30.57,8.42,12.16-.38,28.77-15.18,28.77Z"/><path d="m379.31,627.96s-.07,0-.1,0c-.29-.06-.48-.34-.43-.63l19.37-101.06c.06-.29.33-.48.63-.42.29.06.48.34.43.63l-19.37,101.06c-.05.26-.27.43-.53.43Z"/><path d="M386.34 590.06c-.24 0-.46-.16-.52-.41-3.89-16-5.87-32.46-5.89-48.93 0-.3.24-.54.54-.54h0c.3 0 .54.24.54.54.01 16.38 1.99 32.76 5.86 48.68.07.29-.11.58-.39.65-.04.01-.08.02-.13.02zM540.7 624.52s-.02 0-.03 0c-.3-.02-.52-.27-.5-.57l7.75-126.43c.02-.29.27-.51.57-.5.3.02.52.27.5.57l-7.75 126.43c-.02.28-.25.5-.53.5z"/><path fill="#b8b9d8" d="m167.56,687.63l-10.6,35.03-31.02,102.54c-.92,3.04-3.75,5.1-6.93,5.04l-5.62-.1c-4.68-.09-8-4.59-6.69-9.08l30.27-103.84,10.3-35.34,20.29,5.75Z"/><polygon points="167.56 687.63 147.27 681.88 135.28 722.89 154.65 730.2 167.56 687.63"/><path fill="#fff0e1" d="m383.59,677.57c-30.97,14.07-63.44,25.37-97.43,33.9C133.64,749.71-11.91,626.97.59,470.35c2.09-26.2,12.03-116.42,72.72-132.77-18.08,24.08-9.04,122.13,15.06,162.98,21.95,37.41,51.6,44.68,83.78,34.47,27.66-8.78,55.65-16.43,84.13-22.5,46.35-9.87,91.49,21.94,97.1,68.96,1.17,9.88,1.71,20.32,1.61,31.31l27.5-5.01-10.73,55.54c-1.44,7.43,4.3,14.28,11.83,14.24Z"/><path d="m229.61,719.09c-18.25,0-36.42-2.21-54.41-6.64-34.36-8.46-66.94-25.13-94.22-48.19-27.23-23.02-49.03-52.3-63.03-84.67C3.04,545.12-2.98,508.36.06,470.3c2.08-26.12,7.07-50.4,14.42-70.22,12.9-34.8,32.65-56,58.7-63.02l1.51-.41-.94,1.25c-8.29,11.04-11.42,39.71-8.18,74.83,3.25,35.18,12.17,68.73,23.28,87.56,10.41,17.74,23.12,29.47,37.78,34.86,13.33,4.91,28.6,4.69,45.38-.63,29.49-9.36,57.02-16.72,84.18-22.51,22.4-4.77,45.92.13,64.54,13.44,9.03,6.46,16.5,14.51,22.2,23.92,5.93,9.79,9.63,20.58,11,32.06,1.15,9.67,1.69,20.01,1.62,30.72l27.63-5.03-.15.77-10.73,55.54c-.65,3.37.23,6.82,2.43,9.46,2.19,2.63,5.39,4.14,8.81,4.14h2.57s-2.29,1.03-2.29,1.03c-30.89,14.03-63.7,25.45-97.52,33.93-18.88,4.73-37.82,7.1-56.68,7.1ZM72.01,338.5c-24.98,7.31-43.99,28.14-56.53,61.95-7.31,19.73-12.28,43.91-14.35,69.94-3.02,37.88,2.97,74.47,17.81,108.77,13.94,32.21,35.64,61.35,62.74,84.27,27.15,22.96,59.58,39.55,93.78,47.97,36.4,8.96,73.6,8.81,110.57-.46,33.06-8.29,65.16-19.39,95.44-33.01-2.95-.49-5.63-2.02-7.58-4.36-2.4-2.89-3.37-6.67-2.65-10.35l10.58-54.77-27.37,4.99v-.65c.11-10.9-.43-21.41-1.6-31.24-1.35-11.33-5-21.97-10.85-31.63-5.62-9.29-13-17.23-21.91-23.6-18.37-13.14-41.58-17.97-63.69-13.26-27.12,5.78-54.63,13.14-84.08,22.49-8.85,2.81-17.25,4.21-25.18,4.21-24.18,0-44.03-13.02-59.23-38.92-11.18-18.96-20.16-52.68-23.42-88-1.54-16.71-1.67-32.42-.38-45.42,1.3-12.99,4.02-22.93,7.9-28.9Z"/><circle cx="211.61" cy="221.33" r="6.5" fill="#fff"/><path d="m250.91,176.14c-3.8-2.38-8.17-3.87-12.78-4.33-.85-.08-1.7-.13-2.53-.14.62-5.29,2.82-16.96,9.86-14.28,6.97,2.65,6.18,13.79,5.45,18.75Z"/><path fill="#fe9526" d="m258.66,161.69c-8.03-4.59-11.48-8.03-17.98-5.73-4.13,1.46-4.71,7.07-4.59,10.98-9.37-3.76-22.66.18-28.28,8.61-3,3.7-13.1,17.32-8.07,21.32,2.12,1.69,5.99,1.6,8.44,2.88,4.14,2.16,5.85,6.03,7.99,9.84.97-1.95,3.47-14.04.38-15.23,9.67,2.31,7.87-6.14,9.21-12.01,1.52-6.65,10.91-11.68,17.6-9.56-1.53-2.33-3.57-4.05-5.92-5.24,1.31-4.05,3.82-10.21,6.69-8.9,4.21,1.91-4.26,20.26,5.21,28.86,9.12,8.28,12.48-.86,19.28,15.48,1.77,4.25-1.91-36.7-9.95-41.28Z"/><path d="M268.19 195.72l-1.11-.07c.54-8.32-.68-16.85-3.5-24.69l1.04-.38c2.88 7.98 4.11 16.67 3.57 25.14zM232.01 312.72c-17.85 0-32.83-8.22-42.77-15.71-12.44-9.37-19.88-19.65-19.96-19.75-.17-.24-.12-.57.12-.75.24-.17.58-.12.75.12.07.1 7.44 10.27 19.76 19.54 11.33 8.53 29.3 18.03 50.55 14.85.29-.04.57.16.61.45.04.29-.16.57-.45.61-2.93.44-5.81.64-8.61.64z"/></g><g transform="translate(358.296 691.038) scale(.51895)"><rect width="276.14" height="15.85" x="14.84" y="192.57" fill="#7c5933"/><path d="m291.51,208.95H14.31v-16.91h277.2v16.91Zm-276.14-1.06h275.09v-14.8H15.37v14.8Z"/><rect width="185.33" height="15.85" x="297.84" y="192.57" fill="#ffcc97"/><path d="m483.7,208.95h-186.39v-16.91h186.39v16.91Zm-185.33-1.06h184.27v-14.8h-184.27v14.8Z"/><rect width="265.95" height="168.88" x="25.19" y="23.69" fill="#ffcc97"/><path d="m291.67,193.1H24.66V23.16h267.01v169.94Zm-265.95-1.06h264.89V24.22H25.72v167.82Z"/><rect width="212.24" height="168.88" x="291.14" y="23.69" fill="#fae2c9"/><path d="m503.91,193.1h-213.3V23.16h213.3v169.94Zm-212.24-1.06h211.19V24.22h-211.19v167.82Z"/><rect width="33" height="434.82" x="268.49" y="15.6" fill="#11125b" rx="10.31" ry="10.31"/><path fill="#11125b" d="m14.84,15.6h33v424.5c0,5.69-4.62,10.31-10.31,10.31h-12.38c-5.69,0-10.31-4.62-10.31-10.31V15.6h0Z"/><path d="M291.18 450.94h-12.38c-5.98 0-10.84-4.86-10.84-10.84V25.91c0-5.98 4.86-10.84 10.84-10.84h12.38c5.98 0 10.84 4.86 10.84 10.84v414.19c0 5.98-4.86 10.84-10.84 10.84zm-12.38-434.81c-5.39 0-9.78 4.39-9.78 9.78v414.19c0 5.39 4.39 9.78 9.78 9.78h12.38c5.39 0 9.78-4.39 9.78-9.78V25.91c0-5.39-4.39-9.78-9.78-9.78h-12.38zM37.53 450.94h-12.38c-5.98 0-10.84-4.86-10.84-10.84V15.07h34.06v425.03c0 5.98-4.86 10.84-10.84 10.84zM15.37 16.13v423.98c0 5.39 4.39 9.78 9.78 9.78h12.38c5.39 0 9.78-4.39 9.78-9.78V16.13H15.37z"/><rect width="511.52" height="32.03" x="-.05" y="-.25" fill="#11125b"/><path d="m512,32.3H-.57V-.78h512.57v33.08ZM.48,31.25h510.46V.28H.48v30.97Z"/><path fill="#b8b9d8" d="m470.38,15.6h33v424.5c0,5.69-4.62,10.31-10.31,10.31h-12.38c-5.69,0-10.31-4.62-10.31-10.31V15.6h0Z"/><path d="m493.07,450.94h-12.38c-5.98,0-10.84-4.86-10.84-10.84V15.07h34.06v425.03c0,5.98-4.86,10.84-10.84,10.84Zm-22.16-434.81v423.98c0,5.39,4.39,9.78,9.78,9.78h12.38c5.39,0,9.78-4.39,9.78-9.78V16.13h-31.95Z"/><rect width="205.12" height="32.03" x="306.35" y="-.25" fill="#b8b9d8"/><path d="m512,32.3h-206.18V-.78h206.18v33.08Zm-205.12-1.06h204.07V.28h-204.07v30.97Z"/><rect width="67.77" height="16.5" x="118.46" y="56.04" fill="#11125b" rx="8.25" ry="8.25"/><path d="m177.98,73.07h-51.27c-4.84,0-8.78-3.94-8.78-8.78s3.94-8.78,8.78-8.78h51.27c4.84,0,8.78,3.94,8.78,8.78s-3.94,8.78-8.78,8.78Zm-51.27-16.5c-4.26,0-7.72,3.46-7.72,7.72s3.46,7.72,7.72,7.72h51.27c4.26,0,7.72-3.46,7.72-7.72s-3.46-7.72-7.72-7.72h-51.27Z"/></g><g transform="translate(420.172 524.319) scale(.37172)"><polygon fill="#90e09e" points="41.03 446.5 234.4 446.5 298.4 260.47 105.02 260.47 41.03 446.5"/><path d="m234.98,447.31H39.89l64.56-187.66h195.09l-64.56,187.66Zm-192.81-1.63h191.65l63.44-184.41H105.6l-63.44,184.41Z"/><polygon points="376.63 447.07 234.4 447.07 299.6 259.9 376.63 447.07"/><path d="m281.89,259.9h-1.97c0-7.71-4.58-13.98-10.2-13.98s-10.2,6.27-10.2,13.98h-1.97c0-8.79,5.46-15.95,12.18-15.95s12.18,7.15,12.18,15.95Z"/><path d="m265.93,259.9h-1.97c0-7.71-4.58-13.98-10.2-13.98s-10.2,6.27-10.2,13.98h-1.97c0-8.79,5.46-15.95,12.18-15.95s12.17,7.15,12.17,15.95Z"/><path d="m248.39,259.9h-1.97c0-7.71-4.58-13.98-10.2-13.98s-10.2,6.27-10.2,13.98h-1.97c0-8.79,5.46-15.95,12.17-15.95s12.18,7.15,12.18,15.95Z"/><path d="m229.22,259.9h-1.97c0-7.71-4.58-13.98-10.2-13.98s-10.2,6.27-10.2,13.98h-1.97c0-8.79,5.46-15.95,12.17-15.95s12.18,7.15,12.18,15.95Z"/><path d="m213.26,259.9h-1.97c0-7.71-4.58-13.98-10.2-13.98s-10.2,6.27-10.2,13.98h-1.97c0-8.79,5.46-15.95,12.18-15.95s12.18,7.15,12.18,15.95Z"/><path d="m197.3,259.9h-1.97c0-7.71-4.58-13.98-10.2-13.98s-10.2,6.27-10.2,13.98h-1.97c0-8.79,5.46-15.95,12.18-15.95s12.17,7.15,12.17,15.95Z"/><path d="m181.33,259.9h-1.97c0-7.71-4.58-13.98-10.2-13.98s-10.2,6.27-10.2,13.98h-1.97c0-8.79,5.46-15.95,12.17-15.95s12.18,7.15,12.18,15.95Z"/><path d="m165.37,259.9h-1.97c0-7.71-4.58-13.98-10.2-13.98s-10.2,6.27-10.2,13.98h-1.97c0-8.79,5.46-15.95,12.18-15.95s12.18,7.15,12.18,15.95Z"/><path d="m149.41,259.9h-1.97c0-7.71-4.58-13.98-10.2-13.98s-10.2,6.27-10.2,13.98h-1.97c0-8.79,5.46-15.95,12.18-15.95s12.17,7.15,12.17,15.95Z"/><polygon fill="#fff" points="228.54 320.35 262.79 320.35 273.84 286.29 239.59 286.29 228.54 320.35"/><path d="m263.51,321.33h-36.33l11.69-36.03h36.33l-11.69,36.03Zm-33.61-1.97h32.18l10.41-32.08h-32.18l-10.41,32.08Z"/><polygon fill="#fff" points="185.47 320.35 219.72 320.35 230.77 286.29 196.52 286.29 185.47 320.35"/><path d="m220.44,321.33h-36.33l11.69-36.03h36.33l-11.69,36.03Zm-33.61-1.97h32.18l10.41-32.08h-32.18l-10.41,32.08Z"/><polygon fill="#fff" points="142.4 320.35 176.66 320.35 187.7 286.29 153.45 286.29 142.4 320.35"/><path d="m177.37,321.33h-36.33l11.69-36.03h36.33l-11.69,36.03Zm-33.61-1.97h32.18l10.41-32.08h-32.18l-10.41,32.08Z"/><polygon fill="#fff" points="99.34 320.35 133.59 320.35 144.64 286.29 110.38 286.29 99.34 320.35"/><path d="m134.31,321.33h-36.33l11.69-36.03h36.33l-11.69,36.03Zm-33.61-1.97h32.18l10.41-32.08h-32.18l-10.41,32.08Z"/><polygon fill="#fff" points="211.55 370.51 245.8 370.51 256.84 336.45 222.59 336.45 211.55 370.51"/><path d="m246.51,371.5h-36.33l11.69-36.03h36.33l-11.69,36.03Zm-33.61-1.97h32.18l10.41-32.08h-32.18l-10.41,32.08Z"/><polygon fill="#f98000" points="168.48 370.51 202.73 370.51 213.78 336.45 179.53 336.45 168.48 370.51"/><path d="m203.45,371.5h-36.33l11.69-36.03h36.33l-11.69,36.03Zm-33.61-1.97h32.18l10.41-32.08h-32.18l-10.41,32.08Z"/><polygon fill="#fff" points="125.41 370.51 159.66 370.51 170.71 336.45 136.46 336.45 125.41 370.51"/><path d="m160.38,371.5h-36.33l11.69-36.03h36.33l-11.69,36.03Zm-33.61-1.97h32.18l10.41-32.08h-32.18l-10.41,32.08Z"/><polygon fill="#fff" points="82.34 370.51 116.6 370.51 127.64 336.45 93.39 336.45 82.34 370.51"/><path d="m117.31,371.5h-36.33l11.69-36.03h36.33l-11.69,36.03Zm-33.61-1.97h32.18l10.41-32.08h-32.18l-10.41,32.08Z"/><polygon fill="#fff" points="194.55 420.68 228.8 420.68 239.85 386.62 205.6 386.62 194.55 420.68"/><path d="m229.52,421.66h-36.33l11.69-36.03h36.33l-11.69,36.03Zm-33.61-1.97h32.18l10.41-32.08h-32.18l-10.41,32.08Z"/><polygon fill="#fff" points="151.49 420.68 185.74 420.68 196.78 386.62 162.53 386.62 151.49 420.68"/><path d="m186.45,421.66h-36.33l11.69-36.03h36.33l-11.69,36.03Zm-33.61-1.97h32.18l10.41-32.08h-32.18l-10.41,32.08Z"/><polygon fill="#fff" points="108.42 420.68 142.67 420.68 153.72 386.62 119.47 386.62 108.42 420.68"/><path d="m143.39,421.66h-36.33l11.69-36.03h36.33l-11.69,36.03Zm-33.61-1.97h32.18l10.41-32.08h-32.18l-10.41,32.08Z"/><polygon fill="#fff" points="65.35 420.68 99.6 420.68 110.65 386.62 76.4 386.62 65.35 420.68"/><path d="m100.32,421.66h-36.33l11.69-36.03h36.33l-11.69,36.03Zm-33.61-1.97h32.18l10.41-32.08h-32.18l-10.41,32.08Z"/></g></svg>